<?xml version="1.0" encoding="utf-8"?>
<!-- Generator: Adobe Illustrator 16.0.4, SVG Export Plug-In . SVG Version: 6.00 Build 0)  -->
<!DOCTYPE svg PUBLIC "-//W3C//DTD SVG 1.1//EN" "http://www.w3.org/Graphics/SVG/1.1/DTD/svg11.dtd">
<svg version="1.1" id="Layer_1" xmlns="http://www.w3.org/2000/svg" xmlns:xlink="http://www.w3.org/1999/xlink" x="0px" y="0px"
	 width="81.986px" height="81.986px" viewBox="0 0 81.986 81.986" enable-background="new 0 0 81.986 81.986" xml:space="preserve">
<path fill="#231F20" d="M40.994,4.584C20.882,4.589,4.59,20.882,4.585,40.993C4.59,61.106,20.882,77.398,40.994,77.402
	c20.109-0.004,36.403-16.296,36.407-36.409C77.397,20.882,61.104,4.589,40.994,4.584z M40.997,61h-0.002
	c-1.021,0-1.851-0.996-1.853-2.018l-0.023-24.02C39.117,33.939,39.946,33,40.97,33h0.002c1.022,0,1.851,0.855,1.853,1.877
	l0.023,24.089C42.85,59.989,42.021,61,40.997,61z M40.991,25.322c-1.105,0-1.998-0.896-1.998-2.002c0-1.104,0.893-2.001,1.998-2.001
	c1.106,0,2.002,0.897,2.002,2.001C42.993,24.426,42.098,25.322,40.991,25.322z"/>
</svg>
