<?xml version="1.0" encoding="utf-8"?>
<!-- Generator: Adobe Illustrator 16.0.4, SVG Export Plug-In . SVG Version: 6.00 Build 0)  -->
<!DOCTYPE svg PUBLIC "-//W3C//DTD SVG 1.1//EN" "http://www.w3.org/Graphics/SVG/1.1/DTD/svg11.dtd">
<svg version="1.1" id="Layer_1" xmlns="http://www.w3.org/2000/svg" xmlns:xlink="http://www.w3.org/1999/xlink" x="0px" y="0px"
	 width="81.986px" height="81.986px" viewBox="0 0 81.986 81.986" enable-background="new 0 0 81.986 81.986" xml:space="preserve">
<g display="none">
	<path display="inline" d="M40.995,60.668c-1.021,0-1.851-0.83-1.853-1.852l-0.023-23.911c-0.002-1.023,0.827-1.852,1.851-1.854
		h0.002c1.022,0,1.851,0.829,1.853,1.851l0.023,23.91c0.002,1.023-0.826,1.854-1.851,1.855H40.995z"/>
</g>
<g display="none">
	<path display="inline" d="M40.991,21.319c-1.105,0-1.998,0.897-1.998,2.001c0,1.106,0.893,2.002,1.998,2.002
		c1.106,0,2.002-0.896,2.002-2.002C42.993,22.216,42.098,21.319,40.991,21.319z"/>
</g>
<path display="none" fill="#FFFFFF" d="M40.994,18.362c-12.48,0-22.633,10.153-22.633,22.63c0,12.48,10.153,22.633,22.633,22.633
	c12.479,0,22.631-10.152,22.631-22.633C63.625,28.515,53.473,18.362,40.994,18.362z M20.872,40.992c0-5.204,2.004-9.939,5.26-13.516
	l28.38,28.377c-3.58,3.256-8.312,5.26-13.518,5.26C29.898,61.113,20.872,52.086,20.872,40.992z M56.266,54.057L27.928,25.722
	c3.519-3.016,8.08-4.851,13.066-4.851c11.094,0,20.119,9.028,20.119,20.121C61.113,45.979,59.279,50.539,56.266,54.057z"/>
<g display="none">
	<path display="inline" fill="#020202" d="M35.781,61.621c-0.394,0-0.779-0.133-1.091-0.382L18.75,48.536
		c-0.756-0.602-0.88-1.703-0.278-2.459c0.602-0.757,1.703-0.88,2.459-0.277l14.537,11.584L58.42,27.059
		c0.583-0.771,1.682-0.923,2.451-0.339c0.771,0.583,0.923,1.681,0.34,2.452L37.176,60.927c-0.284,0.377-0.709,0.622-1.177,0.681
		C35.926,61.616,35.854,61.621,35.781,61.621z"/>
</g>
<g>
	<g>
		<g>
			<path fill="#231F20" d="M40.994,77.205c-19.968,0-36.212-16.242-36.212-36.21c0-19.969,16.244-36.214,36.212-36.214
				c19.965,0,36.211,16.245,36.211,36.214C77.205,60.963,60.959,77.205,40.994,77.205z M40.994,7.266
				c-18.599,0-33.729,15.131-33.729,33.729c0,18.596,15.13,33.726,33.729,33.726c18.596,0,33.727-15.13,33.727-33.726
				C74.721,22.396,59.59,7.266,40.994,7.266z"/>
		</g>
	</g>
	<g>
		<path fill="#231F20" d="M28.837,63.261c-0.237,0-0.472-0.062-0.683-0.187c-0.408-0.241-0.658-0.68-0.658-1.154V22.578
			c0-0.475,0.25-0.913,0.658-1.154c0.408-0.242,0.914-0.249,1.329-0.021l35.765,19.671c0.43,0.235,0.695,0.686,0.695,1.175
			s-0.266,0.939-0.695,1.176L29.483,63.096C29.283,63.204,29.06,63.261,28.837,63.261z M30.178,24.848v34.804l31.641-17.402
			L30.178,24.848z"/>
	</g>
</g>
</svg>
