<?xml version="1.0" encoding="utf-8"?>
<!-- Generator: Adobe Illustrator 16.0.4, SVG Export Plug-In . SVG Version: 6.00 Build 0)  -->
<!DOCTYPE svg PUBLIC "-//W3C//DTD SVG 1.1//EN" "http://www.w3.org/Graphics/SVG/1.1/DTD/svg11.dtd">
<svg version="1.1" id="Layer_1" xmlns="http://www.w3.org/2000/svg" xmlns:xlink="http://www.w3.org/1999/xlink" x="0px" y="0px"
	 width="81.986px" height="81.986px" viewBox="0 0 81.986 81.986" enable-background="new 0 0 81.986 81.986" xml:space="preserve">
<path fill="#231F20" d="M40.994,4.584C20.882,4.589,4.59,20.882,4.585,40.993C4.59,61.106,20.882,77.398,40.994,77.402
	c20.109-0.004,36.403-16.296,36.407-36.409C77.397,20.882,61.104,4.589,40.994,4.584z M56.217,56.218
	c-0.672,0.672-1.761,0.672-2.434,0l-12.79-12.789L28.205,56.218c-0.672,0.672-1.763,0.672-2.435,0c-0.672-0.674-0.672-1.763,0-2.435
	l12.789-12.789L25.768,28.203c-0.672-0.672-0.672-1.762,0-2.435c0.672-0.672,1.763-0.672,2.435,0L40.993,38.56l12.79-12.791
	c0.67-0.672,1.761-0.672,2.435,0c0.67,0.673,0.67,1.762,0,2.435l-12.79,12.791l12.789,12.789
	C56.891,54.455,56.891,55.547,56.217,56.218z"/>
</svg>
