<?xml version="1.0" encoding="utf-8"?>
<!-- Generator: Adobe Illustrator 16.0.4, SVG Export Plug-In . SVG Version: 6.00 Build 0)  -->
<!DOCTYPE svg PUBLIC "-//W3C//DTD SVG 1.1//EN" "http://www.w3.org/Graphics/SVG/1.1/DTD/svg11.dtd">
<svg version="1.1" id="Layer_1" xmlns="http://www.w3.org/2000/svg" xmlns:xlink="http://www.w3.org/1999/xlink" x="0px" y="0px"
	 width="81.986px" height="81.986px" viewBox="0 0 81.986 81.986" enable-background="new 0 0 81.986 81.986" xml:space="preserve">
<path d="M41.065,4.531c-20.052,0-36.31,16.324-36.31,36.46c0,20.137,16.258,36.461,36.31,36.461s36.308-16.324,36.308-36.461
	C77.373,20.855,61.117,4.531,41.065,4.531z M36.143,47.363c1.427,1.426,3.311,2.227,5.314,2.256h0.102
	c1.967,0,3.81-0.758,5.185-2.135l19.342-19.34V54.86c0,1.385-1.126,2.511-2.51,2.511H19.433c-1.383,0-2.508-1.126-2.508-2.511
	V28.146L36.143,47.363z M17.976,24.797c0.423-0.311,0.93-0.481,1.457-0.481h44.143c0.528,0,1.036,0.171,1.458,0.482L44.543,45.287
	c-0.787,0.787-1.844,1.222-3.046,1.222c-0.002,0-0.004,0-0.006,0c-1.18-0.016-2.297-0.493-3.148-1.344L17.976,24.797z"/>
</svg>
