<?xml version="1.0" encoding="utf-8"?>
<!-- Generator: Adobe Illustrator 16.0.4, SVG Export Plug-In . SVG Version: 6.00 Build 0)  -->
<!DOCTYPE svg PUBLIC "-//W3C//DTD SVG 1.1//EN" "http://www.w3.org/Graphics/SVG/1.1/DTD/svg11.dtd">
<svg version="1.1" id="Layer_1" xmlns="http://www.w3.org/2000/svg" xmlns:xlink="http://www.w3.org/1999/xlink" x="0px" y="0px"
	 width="81.986px" height="81.986px" viewBox="0 0 81.986 81.986" enable-background="new 0 0 81.986 81.986" xml:space="preserve">
<path fill="#231F20" d="M40.994,4.584C20.882,4.589,4.59,20.882,4.585,40.993C4.59,61.106,20.882,77.398,40.994,77.402
	c20.109-0.004,36.403-16.296,36.407-36.409C77.397,20.882,61.104,4.589,40.994,4.584z M60.803,43H43v17.802
	c0,0.952-1.049,1.724-2,1.722c-0.951,0-2-0.77-2-1.721V43H21.185c-0.951,0-1.722-1.05-1.722-2c0.001-0.952,0.771-2,1.722-2H39
	V21.183c0-0.95,1.049-1.721,2-1.721c0.95,0,2,0.771,2,1.721V39h17.803c0.948,0,1.72,1.048,1.721,2
	C62.521,41.949,61.751,43,60.803,43z"/>
</svg>
