<?xml version="1.0" encoding="utf-8"?>
<!-- Generator: Adobe Illustrator 16.0.4, SVG Export Plug-In . SVG Version: 6.00 Build 0)  -->
<!DOCTYPE svg PUBLIC "-//W3C//DTD SVG 1.1//EN" "http://www.w3.org/Graphics/SVG/1.1/DTD/svg11.dtd">
<svg version="1.1" id="Layer_1" xmlns="http://www.w3.org/2000/svg" xmlns:xlink="http://www.w3.org/1999/xlink" x="0px" y="0px"
	 width="81.986px" height="81.986px" viewBox="0 0 81.986 81.986" enable-background="new 0 0 81.986 81.986" xml:space="preserve">
<g>
	<path fill="#231F20" d="M40.994,77.455L40.994,77.455C20.894,77.452,4.537,61.096,4.532,40.993
		c0.005-20.1,16.362-36.457,36.462-36.462c20.101,0.005,36.457,16.362,36.461,36.462C77.451,61.096,61.095,77.452,40.994,77.455z
		 M40.994,7.031C22.272,7.036,7.037,22.271,7.032,40.993c0.005,18.724,15.24,33.959,33.962,33.962
		c18.723-0.003,33.957-15.238,33.961-33.962C74.951,22.272,59.717,7.037,40.994,7.031z"/>
</g>
<g display="none">
	<path display="inline" d="M40.995,60.668c-1.021,0-1.851-0.83-1.853-1.852l-0.023-23.911c-0.002-1.023,0.827-1.852,1.851-1.854
		h0.002c1.022,0,1.851,0.829,1.853,1.851l0.023,23.91c0.002,1.023-0.826,1.854-1.851,1.855H40.995z"/>
</g>
<g display="none">
	<path display="inline" d="M40.991,21.319c-1.105,0-1.998,0.897-1.998,2.001c0,1.106,0.893,2.002,1.998,2.002
		c1.106,0,2.002-0.896,2.002-2.002C42.993,22.216,42.098,21.319,40.991,21.319z"/>
</g>
<path d="M56.217,53.783L43.428,40.994l12.79-12.791c0.67-0.672,0.67-1.762,0-2.435c-0.674-0.672-1.765-0.672-2.435,0L40.993,38.56
	L28.202,25.769c-0.672-0.672-1.763-0.672-2.435,0c-0.672,0.673-0.672,1.762,0,2.435l12.791,12.791L25.77,53.783
	c-0.672,0.672-0.672,1.761,0,2.435c0.671,0.672,1.762,0.672,2.435,0l12.789-12.789l12.79,12.789c0.673,0.672,1.762,0.672,2.434,0
	C56.891,55.547,56.891,54.455,56.217,53.783z"/>
</svg>
