<?xml version="1.0" encoding="utf-8"?>
<!-- Generator: Adobe Illustrator 16.0.4, SVG Export Plug-In . SVG Version: 6.00 Build 0)  -->
<!DOCTYPE svg PUBLIC "-//W3C//DTD SVG 1.1//EN" "http://www.w3.org/Graphics/SVG/1.1/DTD/svg11.dtd">
<svg version="1.1" id="Layer_1" xmlns="http://www.w3.org/2000/svg" xmlns:xlink="http://www.w3.org/1999/xlink" x="0px" y="0px"
	 width="81.986px" height="81.986px" viewBox="0 0 81.986 81.986" enable-background="new 0 0 81.986 81.986" xml:space="preserve">
<g display="none">
	<path display="inline" d="M40.995,60.668c-1.021,0-1.851-0.83-1.853-1.852l-0.023-23.911c-0.002-1.023,0.827-1.852,1.852-1.854
		h0.002c1.021,0,1.851,0.829,1.853,1.852l0.023,23.91c0.002,1.022-0.826,1.854-1.852,1.854L40.995,60.668L40.995,60.668z"/>
</g>
<g display="none">
	<path display="inline" d="M40.991,21.319c-1.104,0-1.998,0.896-1.998,2.001c0,1.105,0.894,2.002,1.998,2.002
		c1.106,0,2.002-0.896,2.002-2.002C42.993,22.216,42.098,21.319,40.991,21.319z"/>
</g>
<path display="none" fill="#FFFFFF" d="M40.994,18.362c-12.479,0-22.633,10.153-22.633,22.63c0,12.48,10.153,22.633,22.633,22.633
	s22.631-10.151,22.631-22.633C63.625,28.515,53.473,18.362,40.994,18.362z M20.872,40.992c0-5.204,2.004-9.938,5.26-13.516
	l28.381,28.377c-3.58,3.256-8.312,5.26-13.519,5.26C29.898,61.113,20.872,52.086,20.872,40.992z M56.266,54.057L27.928,25.722
	c3.519-3.017,8.079-4.852,13.065-4.852c11.094,0,20.119,9.028,20.119,20.121C61.113,45.979,59.279,50.539,56.266,54.057z"/>
<g display="none">
	<path display="inline" fill="#020202" d="M35.781,61.621c-0.394,0-0.779-0.133-1.091-0.382L18.75,48.536
		c-0.756-0.602-0.88-1.703-0.277-2.459c0.602-0.757,1.702-0.88,2.459-0.277l14.536,11.584L58.42,27.059
		c0.583-0.771,1.683-0.924,2.451-0.339c0.771,0.583,0.923,1.681,0.34,2.451L37.176,60.927c-0.283,0.378-0.709,0.622-1.177,0.682
		C35.926,61.616,35.854,61.621,35.781,61.621z"/>
</g>
<polyline fill="#FFFFFF" points="31.903,16.745 31.901,16.745 50.084,16.745 "/>
<path fill="#010101" d="M63.868,13.539h-7.223c-0.666,0-1.203,0.539-1.203,1.204c0,0.148,0.035,0.286,0.084,0.417h-3.035v-0.657
	c0-2.564-2.088-4.65-4.652-4.65h-2.194V9.291c0-2.564-2.086-4.65-4.652-4.65c-2.563,0-4.646,2.086-4.646,4.65v0.562h-2.201
	c-2.563,0-4.651,2.086-4.651,4.65v0.657h-3.031c0.049-0.131,0.084-0.269,0.084-0.417c0-0.665-0.538-1.204-1.204-1.204h-7.223
	c-1.992,0-3.611,1.619-3.611,3.612v56.584c0,1.992,1.618,3.612,3.611,3.612h45.748c1.992,0,3.612-1.62,3.612-3.613V17.151
	C67.479,15.16,65.86,13.539,63.868,13.539z M59.501,41.406v2.922H44.145v-2.922H59.501z M59.372,36.54H44.016v-2.92h15.355V36.54z
	 M59.35,25.601v2.921H43.996v-2.921H59.35z M31.903,14.503c0-1.236,1.006-2.243,2.243-2.243h4.604V9.291
	c0-1.236,1.006-2.243,2.242-2.243c1.238,0,2.242,1.007,2.242,2.243v2.969h4.604c1.238,0,2.244,1.007,2.244,2.243v2.242H31.903
	V14.503z M24.014,24.765h16.539v19.827H24.014V24.765z M23.605,50.159h35.998v2.975H23.605V50.159z M59.604,69.233h-36v-2.976h36
	V69.233z M59.604,61.301h-36v-2.975h36V61.301z"/>
</svg>
