<?xml version="1.0" encoding="utf-8"?>
<!-- Generator: Adobe Illustrator 16.0.4, SVG Export Plug-In . SVG Version: 6.00 Build 0)  -->
<!DOCTYPE svg PUBLIC "-//W3C//DTD SVG 1.1//EN" "http://www.w3.org/Graphics/SVG/1.1/DTD/svg11.dtd">
<svg version="1.1" id="Layer_1" xmlns="http://www.w3.org/2000/svg" xmlns:xlink="http://www.w3.org/1999/xlink" x="0px" y="0px"
	 width="81.986px" height="81.986px" viewBox="0 0 81.986 81.986" enable-background="new 0 0 81.986 81.986" xml:space="preserve">
<g display="none">
	<path display="inline" d="M40.995,60.668c-1.021,0-1.851-0.83-1.853-1.852l-0.023-23.911c-0.002-1.023,0.827-1.852,1.852-1.854
		h0.002c1.021,0,1.851,0.829,1.853,1.852l0.023,23.91c0.002,1.022-0.826,1.854-1.852,1.854L40.995,60.668L40.995,60.668z"/>
</g>
<g display="none">
	<path display="inline" d="M40.991,21.319c-1.104,0-1.998,0.896-1.998,2.001c0,1.105,0.894,2.002,1.998,2.002
		c1.106,0,2.002-0.896,2.002-2.002C42.993,22.216,42.098,21.319,40.991,21.319z"/>
</g>
<path display="none" fill="#FFFFFF" d="M40.994,18.362c-12.479,0-22.633,10.153-22.633,22.63c0,12.48,10.153,22.633,22.633,22.633
	s22.631-10.151,22.631-22.633C63.625,28.515,53.473,18.362,40.994,18.362z M20.872,40.992c0-5.204,2.004-9.938,5.26-13.516
	l28.381,28.377c-3.58,3.256-8.312,5.26-13.519,5.26C29.898,61.113,20.872,52.086,20.872,40.992z M56.266,54.057L27.928,25.722
	c3.519-3.017,8.079-4.852,13.065-4.852c11.094,0,20.119,9.028,20.119,20.121C61.113,45.979,59.279,50.539,56.266,54.057z"/>
<g display="none">
	<path display="inline" fill="#020202" d="M35.781,61.621c-0.394,0-0.779-0.133-1.091-0.382L18.75,48.536
		c-0.756-0.602-0.88-1.703-0.277-2.459c0.602-0.757,1.702-0.88,2.459-0.277l14.536,11.584L58.42,27.059
		c0.583-0.771,1.683-0.924,2.451-0.339c0.771,0.583,0.923,1.681,0.34,2.451L37.176,60.927c-0.283,0.378-0.709,0.622-1.177,0.682
		C35.926,61.616,35.854,61.621,35.781,61.621z"/>
</g>
<path fill="#231F20" d="M76.368,75.243"/>
<path fill="#231F20" d="M75.812,75.616"/>
<g>
	<path d="M40.994,80.834c-0.941,0-1.824-0.364-2.487-1.026L2.179,43.481c-1.371-1.372-1.371-3.604,0-4.975L38.507,2.179
		c0.663-0.663,1.547-1.028,2.488-1.028l0,0c0.941,0,1.825,0.365,2.487,1.028l36.325,36.327c1.37,1.371,1.371,3.603,0.001,4.974
		L43.481,79.806C42.819,80.469,41.935,80.834,40.994,80.834z M40.994,4.152c-0.081,0-0.237,0.02-0.367,0.149L4.301,40.628
		c-0.198,0.198-0.198,0.534,0.001,0.733l36.326,36.325c0.13,0.129,0.285,0.148,0.367,0.148c0.081,0,0.236-0.02,0.366-0.148
		L77.685,41.36c0.198-0.198,0.198-0.534,0-0.732L41.36,4.301C41.23,4.171,41.075,4.152,40.994,4.152z"/>
</g>
<path d="M54.101,31.331c-0.95-0.553-2.507-1.458-3.457-2.012l-5.651-3.288c-0.95-0.553-1.731-0.106-1.735,0.994l-0.013,3.542
	c-0.004,1.1-0.906,2-2.007,2H28.504c-1.1,0-2,0.9-2,2v20.394c0,1.1,0.9,2,2,2h2.15c1.1,0,2-0.9,2-2V40.717c0-1.1,0.9-2,2-2h6.564
	c1.101,0,1.997,0.9,1.993,2L43.2,44.102c-0.004,1.1,0.774,1.553,1.729,1.006l5.674-3.251c0.954-0.547,2.517-1.441,3.471-1.988
	l5.674-3.25c0.954-0.547,0.957-1.447,0.007-2L54.101,31.331z"/>
</svg>
