<?xml version="1.0" encoding="utf-8"?>
<!-- Generator: Adobe Illustrator 16.0.4, SVG Export Plug-In . SVG Version: 6.00 Build 0)  -->
<!DOCTYPE svg PUBLIC "-//W3C//DTD SVG 1.1//EN" "http://www.w3.org/Graphics/SVG/1.1/DTD/svg11.dtd">
<svg version="1.1" id="Layer_1" xmlns="http://www.w3.org/2000/svg" xmlns:xlink="http://www.w3.org/1999/xlink" x="0px" y="0px"
	 width="81.986px" height="81.986px" viewBox="0 0 81.986 81.986" enable-background="new 0 0 81.986 81.986" xml:space="preserve">
<g display="none">
	<path display="inline" d="M40.995,60.668c-1.021,0-1.851-0.83-1.853-1.852l-0.023-23.911c-0.002-1.023,0.827-1.852,1.852-1.854
		h0.002c1.021,0,1.851,0.829,1.853,1.852l0.023,23.91c0.002,1.022-0.826,1.854-1.852,1.854L40.995,60.668L40.995,60.668z"/>
</g>
<g display="none">
	<path display="inline" d="M40.991,21.319c-1.104,0-1.998,0.896-1.998,2.001c0,1.105,0.894,2.002,1.998,2.002
		c1.106,0,2.002-0.896,2.002-2.002C42.993,22.216,42.098,21.319,40.991,21.319z"/>
</g>
<path display="none" fill="#FFFFFF" d="M40.994,18.362c-12.479,0-22.633,10.153-22.633,22.63c0,12.48,10.153,22.633,22.633,22.633
	s22.631-10.151,22.631-22.633C63.625,28.515,53.473,18.362,40.994,18.362z M20.872,40.992c0-5.204,2.004-9.938,5.26-13.516
	l28.381,28.377c-3.58,3.256-8.312,5.26-13.519,5.26C29.898,61.113,20.872,52.086,20.872,40.992z M56.266,54.057L27.928,25.722
	c3.519-3.017,8.079-4.852,13.065-4.852c11.094,0,20.119,9.028,20.119,20.121C61.113,45.979,59.279,50.539,56.266,54.057z"/>
<g display="none">
	<path display="inline" fill="#020202" d="M35.781,61.621c-0.394,0-0.779-0.133-1.091-0.382L18.75,48.536
		c-0.756-0.602-0.88-1.703-0.277-2.459c0.602-0.757,1.702-0.88,2.459-0.277l14.536,11.584L58.42,27.059
		c0.583-0.771,1.683-0.924,2.451-0.339c0.771,0.583,0.923,1.681,0.34,2.451L37.176,60.927c-0.283,0.378-0.709,0.622-1.177,0.682
		C35.926,61.616,35.854,61.621,35.781,61.621z"/>
</g>
<path fill="#231F20" d="M76.368,75.243"/>
<path fill="#231F20" d="M75.812,75.616"/>
<path d="M40.993,2.01c-14.489,0-26.234,11.745-26.234,26.234s25.263,51.497,25.263,51.497s27.206-37.008,27.206-51.497
	S55.481,2.01,40.993,2.01z M40.993,40.598c-8.509,0-15.407-6.898-15.407-15.407S32.484,9.783,40.993,9.783
	c8.51,0,15.407,6.898,15.407,15.407S49.503,40.598,40.993,40.598z"/>
</svg>
