<?xml version="1.0" encoding="utf-8"?>
<!-- Generator: Adobe Illustrator 16.0.4, SVG Export Plug-In . SVG Version: 6.00 Build 0)  -->
<!DOCTYPE svg PUBLIC "-//W3C//DTD SVG 1.1//EN" "http://www.w3.org/Graphics/SVG/1.1/DTD/svg11.dtd">
<svg version="1.1" id="Layer_1" xmlns="http://www.w3.org/2000/svg" xmlns:xlink="http://www.w3.org/1999/xlink" x="0px" y="0px"
	 width="81.986px" height="81.986px" viewBox="0 0 81.986 81.986" enable-background="new 0 0 81.986 81.986" xml:space="preserve">
<g display="none">
	<path display="inline" d="M40.995,60.668c-1.021,0-1.851-0.83-1.853-1.852l-0.023-23.911c-0.002-1.023,0.827-1.852,1.851-1.854
		h0.002c1.022,0,1.851,0.829,1.853,1.851l0.023,23.91c0.002,1.023-0.826,1.854-1.851,1.855H40.995z"/>
</g>
<g display="none">
	<path display="inline" d="M40.991,21.319c-1.105,0-1.998,0.897-1.998,2.001c0,1.106,0.893,2.002,1.998,2.002
		c1.106,0,2.002-0.896,2.002-2.002C42.993,22.216,42.098,21.319,40.991,21.319z"/>
</g>
<path display="none" fill="#FFFFFF" d="M40.994,18.362c-12.48,0-22.633,10.153-22.633,22.63c0,12.48,10.153,22.633,22.633,22.633
	c12.479,0,22.631-10.152,22.631-22.633C63.625,28.515,53.473,18.362,40.994,18.362z M20.872,40.992c0-5.204,2.004-9.939,5.26-13.516
	l28.38,28.377c-3.58,3.256-8.312,5.26-13.518,5.26C29.898,61.113,20.872,52.086,20.872,40.992z M56.266,54.057L27.928,25.722
	c3.519-3.016,8.08-4.851,13.066-4.851c11.094,0,20.119,9.028,20.119,20.121C61.113,45.979,59.279,50.539,56.266,54.057z"/>
<g display="none">
	<path display="inline" fill="#020202" d="M35.781,61.621c-0.394,0-0.779-0.133-1.091-0.382L18.75,48.536
		c-0.756-0.602-0.88-1.703-0.278-2.459c0.602-0.757,1.703-0.88,2.459-0.277l14.537,11.584L58.42,27.059
		c0.583-0.771,1.682-0.923,2.451-0.339c0.771,0.583,0.923,1.681,0.34,2.452L37.176,60.927c-0.284,0.377-0.709,0.622-1.177,0.681
		C35.926,61.616,35.854,61.621,35.781,61.621z"/>
</g>
<path fill="#231F20" d="M70.736,15.53H11.248c-3.624,0-6.571,2.947-6.571,6.571v37.784c0,3.624,2.947,6.571,6.571,6.571h59.488
	c3.623,0,6.572-2.947,6.572-6.571V22.101C77.309,18.478,74.359,15.53,70.736,15.53z M11.248,17.722h59.488
	c1.373,0,2.586,0.648,3.389,1.641l-28.33,28.327c-1.254,1.256-2.93,1.943-4.73,1.943c-0.035,0-0.07,0-0.105-0.002
	c-1.852-0.026-3.604-0.773-4.937-2.105L7.859,19.36C8.663,18.37,9.875,17.722,11.248,17.722z M75.117,59.885
	c0,2.418-1.965,4.382-4.381,4.382H11.248c-2.416,0-4.38-1.964-4.38-4.382V22.101c0-0.197,0.033-0.385,0.057-0.574l27.548,27.547
	c1.738,1.736,4.03,2.713,6.454,2.748c0.047,0,0.092,0,0.137,0c2.387,0,4.613-0.914,6.281-2.584l27.713-27.711
	c0.025,0.189,0.059,0.377,0.059,0.574V59.885z"/>
</svg>
