<?xml version="1.0" encoding="utf-8"?>
<!-- Generator: Adobe Illustrator 16.0.4, SVG Export Plug-In . SVG Version: 6.00 Build 0)  -->
<!DOCTYPE svg PUBLIC "-//W3C//DTD SVG 1.1//EN" "http://www.w3.org/Graphics/SVG/1.1/DTD/svg11.dtd">
<svg version="1.1" id="Layer_1" xmlns="http://www.w3.org/2000/svg" xmlns:xlink="http://www.w3.org/1999/xlink" x="0px" y="0px"
	 width="81.986px" height="81.986px" viewBox="0 0 81.986 81.986" enable-background="new 0 0 81.986 81.986" xml:space="preserve">
<g display="none">
	<path display="inline" d="M40.995,60.668c-1.021,0-1.851-0.83-1.853-1.852l-0.023-23.911c-0.002-1.023,0.827-1.852,1.852-1.854
		h0.002c1.021,0,1.851,0.829,1.853,1.852l0.023,23.91c0.002,1.022-0.826,1.854-1.852,1.854L40.995,60.668L40.995,60.668z"/>
</g>
<g display="none">
	<path display="inline" d="M40.991,21.319c-1.104,0-1.998,0.896-1.998,2.001c0,1.105,0.894,2.002,1.998,2.002
		c1.106,0,2.002-0.896,2.002-2.002C42.993,22.216,42.098,21.319,40.991,21.319z"/>
</g>
<path display="none" fill="#FFFFFF" d="M40.994,18.362c-12.479,0-22.633,10.153-22.633,22.63c0,12.48,10.153,22.633,22.633,22.633
	s22.631-10.151,22.631-22.633C63.625,28.515,53.473,18.362,40.994,18.362z M20.872,40.992c0-5.204,2.004-9.938,5.26-13.516
	l28.381,28.377c-3.58,3.256-8.312,5.26-13.519,5.26C29.898,61.113,20.872,52.086,20.872,40.992z M56.266,54.057L27.928,25.722
	c3.519-3.017,8.079-4.852,13.065-4.852c11.094,0,20.119,9.028,20.119,20.121C61.113,45.979,59.279,50.539,56.266,54.057z"/>
<g display="none">
	<path display="inline" fill="#020202" d="M35.781,61.621c-0.394,0-0.779-0.133-1.091-0.382L18.75,48.536
		c-0.756-0.602-0.88-1.703-0.277-2.459c0.602-0.757,1.702-0.88,2.459-0.277l14.536,11.584L58.42,27.059
		c0.583-0.771,1.683-0.924,2.451-0.339c0.771,0.583,0.923,1.681,0.34,2.451L37.176,60.927c-0.283,0.378-0.709,0.622-1.177,0.682
		C35.926,61.616,35.854,61.621,35.781,61.621z"/>
</g>
<g>
	<path d="M65.755,73.343c-5.17,0-6.766-4.14-6.887-6.328l-0.002-6.667H23.119v6.584c-0.124,2.271-1.719,6.411-6.888,6.411
		c-5.139,0-6.839-4.112-7.02-6.286l-0.005-0.125v-6.584H3.578l0.049-23.061c0.074-0.282,1.759-6.487,6.647-7.278l5.876-14.547
		c0.243-0.731,2.41-6.818,7.243-6.818h35.199c4.832,0,6.999,6.086,7.242,6.818l5.877,14.547c4.888,0.792,6.572,6.997,6.646,7.278
		l0.049,0.38v22.68H72.78l-0.005,6.709C72.594,69.23,70.892,73.343,65.755,73.343z M20.119,57.347h41.747v9.584
		c0.038,0.491,0.421,3.411,3.889,3.411c3.402,0,3.943-2.786,4.025-3.49v-9.505h5.627V37.883c-0.273-0.878-1.71-4.957-4.74-4.957
		h-1.012l-6.661-16.499c-0.014-0.045-1.61-4.784-4.401-4.784H23.393c-2.36,0-4.01,3.543-4.402,4.784l-0.04,0.11l-6.62,16.388H11.32
		c-3.029,0-4.465,4.072-4.742,4.957v19.464h5.627v9.508c0.078,0.68,0.609,3.487,4.025,3.487c3.593,0,3.871-3.137,3.891-3.494
		L20.119,57.347z M65.788,49.058c-3.686,0-6.684-2.999-6.684-6.685c0-3.685,2.998-6.683,6.684-6.683s6.684,2.998,6.684,6.683
		C72.471,46.059,69.473,49.058,65.788,49.058z M65.788,38.691c-2.031,0-3.684,1.652-3.684,3.683c0,2.031,1.652,3.685,3.684,3.685
		s3.684-1.653,3.684-3.685C69.471,40.343,67.819,38.691,65.788,38.691z M16.265,49.058c-3.686,0-6.685-2.999-6.685-6.685
		c0-3.685,2.999-6.683,6.685-6.683s6.685,2.998,6.685,6.683C22.949,46.059,19.951,49.058,16.265,49.058z M16.265,38.691
		c-2.032,0-3.685,1.652-3.685,3.683c0,2.031,1.653,3.685,3.685,3.685s3.685-1.653,3.685-3.685
		C19.949,40.343,18.297,38.691,16.265,38.691z"/>
</g>
</svg>
