<?xml version="1.0" encoding="utf-8"?>
<!-- Generator: Adobe Illustrator 16.0.4, SVG Export Plug-In . SVG Version: 6.00 Build 0)  -->
<!DOCTYPE svg PUBLIC "-//W3C//DTD SVG 1.1//EN" "http://www.w3.org/Graphics/SVG/1.1/DTD/svg11.dtd">
<svg version="1.1" id="Layer_1" xmlns="http://www.w3.org/2000/svg" xmlns:xlink="http://www.w3.org/1999/xlink" x="0px" y="0px"
	 width="81.986px" height="81.986px" viewBox="0 0 81.986 81.986" enable-background="new 0 0 81.986 81.986" xml:space="preserve">
<g display="none">
	<path display="inline" d="M40.995,60.668c-1.021,0-1.851-0.83-1.853-1.852l-0.023-23.911c-0.002-1.023,0.827-1.852,1.851-1.854
		h0.002c1.022,0,1.851,0.829,1.853,1.851l0.023,23.91c0.002,1.023-0.826,1.854-1.851,1.855H40.995z"/>
</g>
<g display="none">
	<path display="inline" d="M40.991,21.319c-1.105,0-1.998,0.897-1.998,2.001c0,1.106,0.893,2.002,1.998,2.002
		c1.106,0,2.002-0.896,2.002-2.002C42.993,22.216,42.098,21.319,40.991,21.319z"/>
</g>
<path display="none" fill="#FFFFFF" d="M40.994,18.362c-12.48,0-22.633,10.153-22.633,22.63c0,12.48,10.153,22.633,22.633,22.633
	c12.479,0,22.631-10.152,22.631-22.633C63.625,28.515,53.473,18.362,40.994,18.362z M20.872,40.992c0-5.204,2.004-9.939,5.26-13.516
	l28.38,28.377c-3.58,3.256-8.312,5.26-13.518,5.26C29.898,61.113,20.872,52.086,20.872,40.992z M56.266,54.057L27.928,25.722
	c3.519-3.016,8.08-4.851,13.066-4.851c11.094,0,20.119,9.028,20.119,20.121C61.113,45.979,59.279,50.539,56.266,54.057z"/>
<g display="none">
	<path display="inline" fill="#020202" d="M35.781,61.621c-0.394,0-0.779-0.133-1.091-0.382L18.75,48.536
		c-0.756-0.602-0.88-1.703-0.278-2.459c0.602-0.757,1.703-0.88,2.459-0.277l14.537,11.584L58.42,27.059
		c0.583-0.771,1.682-0.923,2.451-0.339c0.771,0.583,0.923,1.681,0.34,2.452L37.176,60.927c-0.284,0.377-0.709,0.622-1.177,0.681
		C35.926,61.616,35.854,61.621,35.781,61.621z"/>
</g>
<g>
	<path fill="#231F20" d="M75.812,67.403L53.381,44.977c6.15-10.151,4.875-23.576-3.884-32.334C44.51,7.656,37.881,4.91,30.83,4.91
		s-13.68,2.747-18.666,7.732c-4.986,4.984-7.733,11.613-7.733,18.667c0,7.051,2.747,13.68,7.733,18.665
		c4.986,4.986,11.615,7.733,18.666,7.733c5.239,0,10.244-1.523,14.516-4.347l22.259,22.259c1.128,1.129,2.613,1.692,4.102,1.692
		c1.485,0,2.973-0.563,4.105-1.695c1.095-1.095,1.7-2.553,1.7-4.105C77.512,69.959,76.906,68.501,75.812,67.403z M14.418,47.721
		c-4.385-4.383-6.8-10.212-6.8-16.412c0-6.201,2.415-12.031,6.8-16.415c4.384-4.384,10.212-6.798,16.412-6.798
		c6.2,0,12.027,2.415,16.414,6.798c9.049,9.049,9.049,23.778,0,32.826C42.857,52.105,37.03,54.52,30.83,54.52
		C24.631,54.52,18.802,52.105,14.418,47.721z M73.559,73.362c-1.021,1.021-2.685,1.018-3.703,0.002l-21.948-21.95
		c0.542-0.46,1.079-0.932,1.59-1.44c0.74-0.74,1.412-1.524,2.048-2.326l22.014,22.009c0.493,0.495,0.768,1.154,0.768,1.854
		C74.326,72.21,74.052,72.867,73.559,73.362z"/>
</g>
</svg>
