<?xml version="1.0" encoding="utf-8"?>
<!-- Generator: Adobe Illustrator 16.0.4, SVG Export Plug-In . SVG Version: 6.00 Build 0)  -->
<!DOCTYPE svg PUBLIC "-//W3C//DTD SVG 1.1//EN" "http://www.w3.org/Graphics/SVG/1.1/DTD/svg11.dtd">
<svg version="1.1" id="Layer_1" xmlns="http://www.w3.org/2000/svg" xmlns:xlink="http://www.w3.org/1999/xlink" x="0px" y="0px"
	 width="81.986px" height="81.986px" viewBox="0 0 81.986 81.986" enable-background="new 0 0 81.986 81.986" xml:space="preserve">
<g display="none">
	<path display="inline" d="M40.995,60.668c-1.021,0-1.851-0.83-1.853-1.852l-0.023-23.911c-0.002-1.023,0.827-1.852,1.851-1.854
		h0.002c1.022,0,1.851,0.829,1.853,1.851l0.023,23.91c0.002,1.023-0.826,1.854-1.851,1.855H40.995z"/>
</g>
<g display="none">
	<path display="inline" d="M40.991,21.319c-1.105,0-1.998,0.897-1.998,2.001c0,1.106,0.893,2.002,1.998,2.002
		c1.106,0,2.002-0.896,2.002-2.002C42.993,22.216,42.098,21.319,40.991,21.319z"/>
</g>
<path display="none" fill="#FFFFFF" d="M40.994,18.362c-12.48,0-22.633,10.153-22.633,22.63c0,12.48,10.153,22.633,22.633,22.633
	c12.479,0,22.631-10.152,22.631-22.633C63.625,28.515,53.473,18.362,40.994,18.362z M20.872,40.992c0-5.204,2.004-9.939,5.26-13.516
	l28.38,28.377c-3.58,3.256-8.312,5.26-13.518,5.26C29.898,61.113,20.872,52.086,20.872,40.992z M56.266,54.057L27.928,25.722
	c3.519-3.016,8.08-4.851,13.066-4.851c11.094,0,20.119,9.028,20.119,20.121C61.113,45.979,59.279,50.539,56.266,54.057z"/>
<g display="none">
	<path display="inline" fill="#020202" d="M35.781,61.621c-0.394,0-0.779-0.133-1.091-0.382L18.75,48.536
		c-0.756-0.602-0.88-1.703-0.278-2.459c0.602-0.757,1.703-0.88,2.459-0.277l14.537,11.584L58.42,27.059
		c0.583-0.771,1.682-0.923,2.451-0.339c0.771,0.583,0.923,1.681,0.34,2.452L37.176,60.927c-0.284,0.377-0.709,0.622-1.177,0.681
		C35.926,61.616,35.854,61.621,35.781,61.621z"/>
</g>
<g>
	<g>
		<path fill="#231F20" d="M55.207,77.327H44.698c-0.785,0-1.421-0.637-1.421-1.422s0.636-1.421,1.421-1.421h10.509
			c6.442,0,6.775-3.097,6.785-3.23l-0.001-57.64c0-5.761-3.851-6.11-4.29-6.13L28.164,7.484c-0.784,0-1.421-0.636-1.421-1.421
			c0-0.785,0.637-1.421,1.421-1.421h29.589c2.475,0.067,7.081,2.026,7.081,8.972v57.722C64.825,71.627,64.523,77.327,55.207,77.327z
			"/>
	</g>
	<g>
		<path fill="#231F20" d="M45.294,77.327H29.565c-9.317,0-9.617-5.7-9.625-5.943l0-57.77c0-6.946,4.604-8.905,7.039-8.971
			l29.631-0.001c0.785,0,1.421,0.637,1.421,1.421c0,0.785-0.636,1.421-1.421,1.421H27.017c-0.386,0.02-4.235,0.369-4.235,6.129
			v57.722c0.008,0.052,0.34,3.148,6.783,3.148h15.729c0.785,0,1.422,0.636,1.422,1.421S46.079,77.327,45.294,77.327z"/>
	</g>
	<g>
		<path fill="#231F20" d="M51.633,58.546H34.952c-0.784,0-1.421-0.637-1.421-1.422s0.637-1.421,1.421-1.421h16.681
			c3.661,0,4.473-2.938,4.61-3.602v-35.16c0-3.195-1.925-4.015-2.471-4.183H31.075c-0.785,0-1.421-0.637-1.421-1.422
			c0-0.785,0.636-1.421,1.421-1.421h22.881c0.095,0,0.19,0.009,0.282,0.029c1.677,0.34,4.848,2.241,4.848,6.997v35.292
			c0,0.071-0.006,0.144-0.017,0.217C58.743,54.559,56.771,58.546,51.633,58.546z"/>
	</g>
	<g>
		<path fill="#231F20" d="M43.611,71.793c-3.011,0-5.461-2.45-5.461-5.462c0-3.01,2.45-5.459,5.461-5.459
			c3.012,0,5.461,2.449,5.461,5.459C49.072,69.343,46.623,71.793,43.611,71.793z M43.611,63.715c-1.442,0-2.618,1.174-2.618,2.616
			c0,1.444,1.176,2.619,2.618,2.619c1.444,0,2.617-1.175,2.617-2.619C46.229,64.889,45.056,63.715,43.611,63.715z"/>
	</g>
	<g>
		<g>
			<path fill="#231F20" d="M26.04,30.665H8.947c-0.721,0-1.306-0.584-1.306-1.307c0-0.72,0.585-1.304,1.306-1.304H26.04
				c0.721,0,1.306,0.584,1.306,1.304C27.346,30.08,26.761,30.665,26.04,30.665z"/>
		</g>
	</g>
	<g>
		<g>
			<path fill="#231F20" d="M32.132,41.979H15.039c-0.72,0-1.305-0.585-1.305-1.306s0.585-1.307,1.305-1.307h17.093
				c0.722,0,1.306,0.586,1.306,1.307S32.854,41.979,32.132,41.979z"/>
		</g>
	</g>
</g>
</svg>
