<?xml version="1.0" encoding="utf-8"?>
<!-- Generator: Adobe Illustrator 16.0.4, SVG Export Plug-In . SVG Version: 6.00 Build 0)  -->
<!DOCTYPE svg PUBLIC "-//W3C//DTD SVG 1.1//EN" "http://www.w3.org/Graphics/SVG/1.1/DTD/svg11.dtd">
<svg version="1.1" id="Layer_1" xmlns="http://www.w3.org/2000/svg" xmlns:xlink="http://www.w3.org/1999/xlink" x="0px" y="0px"
	 width="81.986px" height="81.986px" viewBox="0 0 81.986 81.986" enable-background="new 0 0 81.986 81.986" xml:space="preserve">
<g>
	<g>
		<path d="M19.521,75.568c-0.317,0-0.633-0.099-0.9-0.294c-0.472-0.343-0.708-0.924-0.609-1.497l3.966-23.116L5.18,34.288
			c-0.418-0.407-0.568-1.016-0.388-1.57c0.18-0.554,0.661-0.959,1.237-1.042l23.211-3.37L39.621,7.271
			c0.26-0.522,0.791-0.854,1.373-0.854l0,0c0.583,0,1.116,0.332,1.375,0.854l10.379,21.034l23.211,3.37
			c0.578,0.083,1.057,0.488,1.235,1.042c0.182,0.555,0.03,1.164-0.387,1.57L60.013,50.661l3.964,23.116
			c0.098,0.573-0.138,1.154-0.609,1.497c-0.47,0.345-1.099,0.389-1.613,0.117l-20.76-10.913L20.233,75.392
			C20.009,75.51,19.765,75.568,19.521,75.568z M9.541,34.26L24.69,49.029c0.361,0.354,0.525,0.86,0.441,1.356l-3.577,20.851
			l18.728-9.845c0.448-0.235,0.981-0.235,1.426,0l18.725,9.845l-3.576-20.851c-0.086-0.496,0.08-1.003,0.441-1.356l15.15-14.769
			l-20.937-3.04c-0.501-0.072-0.932-0.384-1.156-0.837l-9.361-18.972L31.63,30.383c-0.222,0.453-0.654,0.766-1.152,0.837
			L9.541,34.26z"/>
	</g>
	<g>
		<polygon points="40.993,56.102 27.332,63.284 29.941,48.076 18.887,37.299 34.163,35.082 40.993,21.241 47.822,35.082 
			63.1,37.299 52.044,48.076 54.655,63.284 		"/>
	</g>
</g>
</svg>
