<?xml version="1.0" encoding="utf-8"?>
<!-- Generator: Adobe Illustrator 16.0.4, SVG Export Plug-In . SVG Version: 6.00 Build 0)  -->
<!DOCTYPE svg PUBLIC "-//W3C//DTD SVG 1.1//EN" "http://www.w3.org/Graphics/SVG/1.1/DTD/svg11.dtd">
<svg version="1.1" id="Layer_1" xmlns="http://www.w3.org/2000/svg" xmlns:xlink="http://www.w3.org/1999/xlink" x="0px" y="0px"
	 width="81.986px" height="81.986px" viewBox="0 0 81.986 81.986" enable-background="new 0 0 81.986 81.986" xml:space="preserve">
<g>
	<g>
		<path d="M19.486,75.622c-0.317,0-0.634-0.1-0.902-0.294c-0.473-0.344-0.709-0.925-0.61-1.5l3.972-23.151L5.123,34.277
			c-0.418-0.407-0.569-1.017-0.388-1.572c0.18-0.555,0.661-0.96,1.238-1.044l23.248-3.375L39.617,7.219
			c0.26-0.523,0.794-0.855,1.377-0.855l0,0c0.583,0,1.116,0.332,1.376,0.855l10.395,21.066l23.248,3.375
			c0.579,0.084,1.058,0.49,1.237,1.044c0.183,0.556,0.03,1.165-0.388,1.572L60.04,50.677l3.972,23.151
			c0.098,0.575-0.139,1.156-0.611,1.5c-0.47,0.348-1.1,0.389-1.614,0.118L40.994,64.515L20.2,75.446
			C19.975,75.564,19.73,75.622,19.486,75.622z M9.491,34.25l15.173,14.793c0.362,0.354,0.526,0.86,0.442,1.358l-3.583,20.882
			l18.758-9.859c0.447-0.236,0.982-0.236,1.426,0l18.755,9.859L56.88,50.401c-0.086-0.498,0.079-1.005,0.441-1.358L72.496,34.25
			l-20.97-3.044c-0.5-0.072-0.932-0.385-1.156-0.838l-9.376-19.002l-9.379,19.002c-0.222,0.453-0.655,0.767-1.155,0.838L9.491,34.25
			z"/>
	</g>
	<g>
		<path d="M29.74,59.259c-0.113,0-0.229-0.014-0.343-0.039c-0.826-0.189-1.342-1.012-1.153-1.839l1.869-8.14l-8.332-9.27
			c-0.374-0.414-0.493-1-0.309-1.527s0.64-0.915,1.19-1.009l11.188-1.917l3.741-7.141c0.393-0.751,1.324-1.044,2.069-0.647
			c0.751,0.391,1.04,1.32,0.646,2.069l-4.093,7.814c-0.222,0.424-0.626,0.722-1.099,0.801l-9.193,1.576l7.003,7.793
			c0.335,0.368,0.466,0.88,0.354,1.367l-2.044,8.917C31.072,58.776,30.439,59.259,29.74,59.259z"/>
	</g>
</g>
</svg>
