<?xml version="1.0" encoding="utf-8"?>
<!-- Generator: Adobe Illustrator 16.0.4, SVG Export Plug-In . SVG Version: 6.00 Build 0)  -->
<!DOCTYPE svg PUBLIC "-//W3C//DTD SVG 1.1//EN" "http://www.w3.org/Graphics/SVG/1.1/DTD/svg11.dtd">
<svg version="1.1" id="Layer_1" xmlns="http://www.w3.org/2000/svg" xmlns:xlink="http://www.w3.org/1999/xlink" x="0px" y="0px"
	 width="81.986px" height="81.986px" viewBox="0 0 81.986 81.986" enable-background="new 0 0 81.986 81.986" xml:space="preserve">
<g display="none">
	<path display="inline" d="M40.995,60.668c-1.021,0-1.851-0.83-1.853-1.852l-0.023-23.911c-0.002-1.023,0.827-1.852,1.851-1.854
		h0.002c1.022,0,1.851,0.829,1.853,1.851l0.023,23.91c0.002,1.023-0.826,1.854-1.851,1.855H40.995z"/>
</g>
<g display="none">
	<path display="inline" d="M40.991,21.319c-1.105,0-1.998,0.897-1.998,2.001c0,1.106,0.893,2.002,1.998,2.002
		c1.106,0,2.002-0.896,2.002-2.002C42.993,22.216,42.098,21.319,40.991,21.319z"/>
</g>
<path display="none" fill="#FFFFFF" d="M40.994,18.362c-12.48,0-22.633,10.153-22.633,22.63c0,12.48,10.153,22.633,22.633,22.633
	c12.479,0,22.631-10.152,22.631-22.633C63.625,28.515,53.473,18.362,40.994,18.362z M20.872,40.992c0-5.204,2.004-9.939,5.26-13.516
	l28.38,28.377c-3.58,3.256-8.312,5.26-13.518,5.26C29.898,61.113,20.872,52.086,20.872,40.992z M56.266,54.057L27.928,25.722
	c3.519-3.016,8.08-4.851,13.066-4.851c11.094,0,20.119,9.028,20.119,20.121C61.113,45.979,59.279,50.539,56.266,54.057z"/>
<g display="none">
	<path display="inline" fill="#020202" d="M35.781,61.621c-0.394,0-0.779-0.133-1.091-0.382L18.75,48.536
		c-0.756-0.602-0.88-1.703-0.278-2.459c0.602-0.757,1.703-0.88,2.459-0.277l14.537,11.584L58.42,27.059
		c0.583-0.771,1.682-0.923,2.451-0.339c0.771,0.583,0.923,1.681,0.34,2.452L37.176,60.927c-0.284,0.377-0.709,0.622-1.177,0.681
		C35.926,61.616,35.854,61.621,35.781,61.621z"/>
</g>
<g>
	<g>
		<path d="M41.362,23.072c-3.223,0-19.441-0.056-22.337-1.176c-4.588-1.77-6.883-6.949-5.111-11.543
			c1.323-3.418,4.67-5.714,8.333-5.714c1.099,0,2.181,0.202,3.215,0.601c2.94,1.137,12.071,6.696,15.899,11.316
			C45.191,11.938,54.32,6.378,57.262,5.24c1.035-0.399,2.116-0.601,3.215-0.601c3.664,0,7.013,2.295,8.332,5.712
			c0.86,2.227,0.802,4.654-0.161,6.834c-0.966,2.18-2.724,3.853-4.951,4.713C60.805,23.016,44.586,23.072,41.362,23.072z
			 M60.477,7.649c-0.728,0-1.442,0.135-2.128,0.399c-3.503,1.354-13.979,8.165-15.609,11.836c-0.027,0.06-0.06,0.12-0.092,0.174
			c11.435-0.034,18.789-0.515,19.965-0.97c1.477-0.571,2.641-1.679,3.281-3.124c0.64-1.444,0.677-3.053,0.108-4.528
			C65.125,9.172,62.906,7.649,60.477,7.649z M22.248,7.649c-2.429,0-4.649,1.523-5.523,3.788c-1.174,3.044,0.345,6.476,3.386,7.65
			c1.178,0.457,8.533,0.938,19.969,0.972c-0.034-0.055-0.065-0.114-0.093-0.174C38.355,16.212,27.879,9.403,24.377,8.049
			C23.692,7.784,22.975,7.649,22.248,7.649z"/>
	</g>
	<g>
		<rect x="35.274" y="21.291" width="12.173" height="53.358"/>
	</g>
	<g>
		<path d="M75.812,45.14H6.915c-0.832,0-1.506-0.675-1.506-1.506V21.567c0-0.832,0.675-1.506,1.506-1.506h68.896
			c0.831,0,1.506,0.674,1.506,1.506v22.066C77.317,44.465,76.643,45.14,75.812,45.14z M8.42,42.128h65.887V23.072H8.42V42.128z"/>
	</g>
	<g>
		<path d="M72.443,76.82H10.281c-0.832,0-1.506-0.674-1.506-1.506V44.531c0-0.833,0.674-1.507,1.506-1.507
			c0.831,0,1.505,0.674,1.505,1.507V73.81h59.152V44.531c0-0.833,0.674-1.507,1.505-1.507c0.832,0,1.506,0.674,1.506,1.507v30.783
			C73.949,76.146,73.275,76.82,72.443,76.82z"/>
	</g>
</g>
</svg>
