<?xml version="1.0" encoding="utf-8"?>
<!-- Generator: Adobe Illustrator 16.0.4, SVG Export Plug-In . SVG Version: 6.00 Build 0)  -->
<!DOCTYPE svg PUBLIC "-//W3C//DTD SVG 1.1//EN" "http://www.w3.org/Graphics/SVG/1.1/DTD/svg11.dtd">
<svg version="1.1" id="Layer_1" xmlns="http://www.w3.org/2000/svg" xmlns:xlink="http://www.w3.org/1999/xlink" x="0px" y="0px"
	 width="81.986px" height="81.986px" viewBox="0 0 81.986 81.986" enable-background="new 0 0 81.986 81.986" xml:space="preserve">
<g display="none">
	<path display="inline" d="M40.995,60.668c-1.021,0-1.851-0.83-1.853-1.852l-0.023-23.911c-0.002-1.023,0.827-1.852,1.851-1.854
		h0.002c1.022,0,1.851,0.829,1.853,1.851l0.023,23.91c0.002,1.023-0.826,1.854-1.851,1.855H40.995z"/>
</g>
<g display="none">
	<path display="inline" d="M40.991,21.319c-1.105,0-1.998,0.897-1.998,2.001c0,1.106,0.893,2.002,1.998,2.002
		c1.106,0,2.002-0.896,2.002-2.002C42.993,22.216,42.098,21.319,40.991,21.319z"/>
</g>
<path display="none" fill="#FFFFFF" d="M40.994,18.362c-12.48,0-22.633,10.153-22.633,22.63c0,12.48,10.153,22.633,22.633,22.633
	c12.479,0,22.631-10.152,22.631-22.633C63.625,28.515,53.473,18.362,40.994,18.362z M20.872,40.992c0-5.204,2.004-9.939,5.26-13.516
	l28.38,28.377c-3.58,3.256-8.312,5.26-13.518,5.26C29.898,61.113,20.872,52.086,20.872,40.992z M56.266,54.057L27.928,25.722
	c3.519-3.016,8.08-4.851,13.066-4.851c11.094,0,20.119,9.028,20.119,20.121C61.113,45.979,59.279,50.539,56.266,54.057z"/>
<g display="none">
	<path display="inline" fill="#020202" d="M35.781,61.621c-0.394,0-0.779-0.133-1.091-0.382L18.75,48.536
		c-0.756-0.602-0.88-1.703-0.278-2.459c0.602-0.757,1.703-0.88,2.459-0.277l14.537,11.584L58.42,27.059
		c0.583-0.771,1.682-0.923,2.451-0.339c0.771,0.583,0.923,1.681,0.34,2.452L37.176,60.927c-0.284,0.377-0.709,0.622-1.177,0.681
		C35.926,61.616,35.854,61.621,35.781,61.621z"/>
</g>
<g>
	<g>
		<path d="M67.208,72.33h-2.262c-0.689,0-1.248-0.558-1.248-1.248c0-0.689,0.559-1.249,1.248-1.249h2.262
			c4.318,0,7.832-3.514,7.832-7.834V21.036h-7.856c-0.692,0-1.251-0.561-1.251-1.248c0-0.691,0.559-1.25,1.251-1.25h9.106
			c0.689,0,1.248,0.559,1.248,1.25v42.21C77.538,67.696,72.903,72.33,67.208,72.33z"/>
	</g>
	<g>
		<path d="M67.184,72.33H14.778c-5.695,0-10.33-4.634-10.33-10.331V10.905c0-0.69,0.561-1.249,1.248-1.249h52.406
			c0.688,0,1.247,0.559,1.247,1.249v51.094c0,4.32,3.514,7.834,7.834,7.834c0.688,0,1.247,0.56,1.247,1.249
			C68.431,71.772,67.872,72.33,67.184,72.33z M6.946,12.154v49.845c0,4.32,3.512,7.834,7.832,7.834h45.674
			c-2.202-1.896-3.601-4.705-3.601-7.834V12.154H6.946z"/>
	</g>
	<g>
		<path d="M51.998,37.244H12.223c-0.688,0-1.247-0.561-1.247-1.251V20.23c0-0.69,0.559-1.249,1.247-1.249h39.775
			c0.69,0,1.249,0.559,1.249,1.249v15.763C53.247,36.684,52.688,37.244,51.998,37.244z M13.473,34.744h37.276V21.479H13.473V34.744z
			"/>
	</g>
	<g>
		<path d="M51.998,55.008H12.223c-0.688,0-1.247-0.561-1.247-1.25c0-0.691,0.559-1.25,1.247-1.25h39.775
			c0.69,0,1.249,0.559,1.249,1.25C53.247,54.447,52.688,55.008,51.998,55.008z"/>
	</g>
	<g>
		<path d="M51.998,46.685H12.223c-0.688,0-1.247-0.559-1.247-1.25c0-0.689,0.559-1.248,1.247-1.248h39.775
			c0.69,0,1.249,0.559,1.249,1.248S52.688,46.685,51.998,46.685z"/>
	</g>
</g>
</svg>
