<?xml version="1.0" encoding="utf-8"?>
<!-- Generator: Adobe Illustrator 16.0.4, SVG Export Plug-In . SVG Version: 6.00 Build 0)  -->
<!DOCTYPE svg PUBLIC "-//W3C//DTD SVG 1.1//EN" "http://www.w3.org/Graphics/SVG/1.1/DTD/svg11.dtd">
<svg version="1.1" id="Layer_1" xmlns="http://www.w3.org/2000/svg" xmlns:xlink="http://www.w3.org/1999/xlink" x="0px" y="0px"
	 width="81.986px" height="81.986px" viewBox="0 0 81.986 81.986" enable-background="new 0 0 81.986 81.986" xml:space="preserve">
<g display="none">
	<path display="inline" d="M40.995,60.668c-1.021,0-1.851-0.83-1.853-1.852l-0.023-23.911c-0.002-1.023,0.827-1.852,1.851-1.854
		h0.002c1.022,0,1.851,0.829,1.853,1.851l0.023,23.91c0.002,1.023-0.826,1.854-1.851,1.855H40.995z"/>
</g>
<g display="none">
	<path display="inline" d="M40.991,21.319c-1.105,0-1.998,0.897-1.998,2.001c0,1.106,0.893,2.002,1.998,2.002
		c1.106,0,2.002-0.896,2.002-2.002C42.993,22.216,42.098,21.319,40.991,21.319z"/>
</g>
<path display="none" fill="#FFFFFF" d="M40.994,18.362c-12.48,0-22.633,10.153-22.633,22.63c0,12.48,10.153,22.633,22.633,22.633
	c12.479,0,22.631-10.152,22.631-22.633C63.625,28.515,53.473,18.362,40.994,18.362z M20.872,40.992c0-5.204,2.004-9.939,5.26-13.516
	l28.38,28.377c-3.58,3.256-8.312,5.26-13.518,5.26C29.898,61.113,20.872,52.086,20.872,40.992z M56.266,54.057L27.928,25.722
	c3.519-3.016,8.08-4.851,13.066-4.851c11.094,0,20.119,9.028,20.119,20.121C61.113,45.979,59.279,50.539,56.266,54.057z"/>
<g display="none">
	<path display="inline" fill="#020202" d="M35.781,61.621c-0.394,0-0.779-0.133-1.091-0.382L18.75,48.536
		c-0.756-0.602-0.88-1.703-0.278-2.459c0.602-0.757,1.703-0.88,2.459-0.277l14.537,11.584L58.42,27.059
		c0.583-0.771,1.682-0.923,2.451-0.339c0.771,0.583,0.923,1.681,0.34,2.452L37.176,60.927c-0.284,0.377-0.709,0.622-1.177,0.681
		C35.926,61.616,35.854,61.621,35.781,61.621z"/>
</g>
<g>
	<g>
		<g>
			<path fill="#010101" d="M70.119,19.211h-2.196v-8.235c0-0.547-0.442-0.989-0.988-0.989H51.334c-0.546,0-0.989,0.442-0.989,0.989
				v8.235H11.818c-3.982,0-7.222,3.241-7.222,7.223v36.769c0,3.983,3.239,7.223,7.222,7.223h58.301c3.981,0,7.221-3.24,7.221-7.223
				V26.434C77.34,22.45,74.101,19.211,70.119,19.211z M74.934,63.203c0,2.656-2.159,4.815-4.814,4.815H11.818
				c-2.655,0-4.814-2.159-4.814-4.815V26.434c0-2.656,2.16-4.815,4.814-4.815h58.301c2.655,0,4.814,2.16,4.814,4.815V63.203z"/>
		</g>
		<g>
			<path fill="#010101" d="M40.968,28.221c-9.151,0-16.597,7.445-16.597,16.598c0,9.15,7.445,16.597,16.597,16.597
				s16.598-7.446,16.598-16.597C57.565,35.666,50.119,28.221,40.968,28.221z M40.968,59.009c-7.824,0-14.189-6.365-14.189-14.189
				c0-7.825,6.365-14.19,14.189-14.19c7.825,0,14.19,6.365,14.19,14.19C55.158,52.644,48.793,59.009,40.968,59.009z"/>
		</g>
		<g>
			<path fill="#010101" d="M20.984,24.905h-9.581c-0.547,0-0.99,0.444-0.99,0.99v6.042c0,0.548,0.443,0.99,0.99,0.99h9.581
				c0.547,0,0.99-0.442,0.99-0.99v-6.042C21.975,25.349,21.531,24.905,20.984,24.905z"/>
		</g>
	</g>
	<g>
		<path fill="#010101" d="M38.911,49.641c-4.226,0-7.664-3.438-7.664-7.664c0-4.228,3.438-7.665,7.664-7.665
			c4.227,0,7.664,3.437,7.664,7.665C46.575,46.203,43.138,49.641,38.911,49.641z M38.911,37.017c-2.735,0-4.959,2.225-4.959,4.96
			c0,2.734,2.224,4.959,4.959,4.959c2.735,0,4.959-2.225,4.959-4.959C43.87,39.241,41.646,37.017,38.911,37.017z"/>
	</g>
</g>
</svg>
