<?xml version="1.0" encoding="utf-8"?>
<!-- Generator: Adobe Illustrator 16.0.4, SVG Export Plug-In . SVG Version: 6.00 Build 0)  -->
<!DOCTYPE svg PUBLIC "-//W3C//DTD SVG 1.1//EN" "http://www.w3.org/Graphics/SVG/1.1/DTD/svg11.dtd">
<svg version="1.1" id="Layer_1" xmlns="http://www.w3.org/2000/svg" xmlns:xlink="http://www.w3.org/1999/xlink" x="0px" y="0px"
	 width="81.986px" height="81.986px" viewBox="0 0 81.986 81.986" enable-background="new 0 0 81.986 81.986" xml:space="preserve">
<g display="none">
	<path display="inline" d="M40.995,60.668c-1.021,0-1.851-0.83-1.853-1.852l-0.023-23.911c-0.002-1.023,0.827-1.852,1.851-1.854
		h0.002c1.022,0,1.851,0.829,1.853,1.851l0.023,23.91c0.002,1.023-0.826,1.854-1.851,1.855H40.995z"/>
</g>
<g display="none">
	<path display="inline" d="M40.991,21.319c-1.105,0-1.998,0.897-1.998,2.001c0,1.106,0.893,2.002,1.998,2.002
		c1.106,0,2.002-0.896,2.002-2.002C42.993,22.216,42.098,21.319,40.991,21.319z"/>
</g>
<path display="none" fill="#FFFFFF" d="M40.994,18.362c-12.48,0-22.633,10.153-22.633,22.63c0,12.48,10.153,22.633,22.633,22.633
	c12.479,0,22.631-10.152,22.631-22.633C63.625,28.515,53.473,18.362,40.994,18.362z M20.872,40.992c0-5.204,2.004-9.939,5.26-13.516
	l28.38,28.377c-3.58,3.256-8.312,5.26-13.518,5.26C29.898,61.113,20.872,52.086,20.872,40.992z M56.266,54.057L27.928,25.722
	c3.519-3.016,8.08-4.851,13.066-4.851c11.094,0,20.119,9.028,20.119,20.121C61.113,45.979,59.279,50.539,56.266,54.057z"/>
<g display="none">
	<path display="inline" fill="#020202" d="M35.781,61.621c-0.394,0-0.779-0.133-1.091-0.382L18.75,48.536
		c-0.756-0.602-0.88-1.703-0.278-2.459c0.602-0.757,1.703-0.88,2.459-0.277l14.537,11.584L58.42,27.059
		c0.583-0.771,1.682-0.923,2.451-0.339c0.771,0.583,0.923,1.681,0.34,2.452L37.176,60.927c-0.284,0.377-0.709,0.622-1.177,0.681
		C35.926,61.616,35.854,61.621,35.781,61.621z"/>
</g>
<g>
	<g>
		<path fill="#231F20" d="M71.193,61.135H27.008c-0.751,0-1.359-0.609-1.359-1.359s0.608-1.359,1.359-1.359h44.186
			c1.831,0,3.319-1.488,3.319-3.318V26.888c0-1.831-1.488-3.319-3.319-3.319H6.115c-0.75,0-1.358-0.608-1.358-1.358
			s0.608-1.358,1.358-1.358h65.078c3.328,0,6.036,2.708,6.036,6.036v28.209C77.229,58.426,74.521,61.135,71.193,61.135z"/>
	</g>
	<g>
		<path fill="#231F20" d="M35.951,48.188H18.168c-0.749,0-1.357-0.607-1.357-1.357s0.608-1.357,1.357-1.357h17.783
			c0.749,0,1.357,0.607,1.357,1.357S36.7,48.188,35.951,48.188z"/>
	</g>
	<g>
		<path fill="#231F20" d="M30.831,36.786H13.047c-0.75,0-1.358-0.608-1.358-1.359c0-0.749,0.608-1.357,1.358-1.357h17.784
			c0.75,0,1.358,0.608,1.358,1.357C32.189,36.177,31.581,36.786,30.831,36.786z"/>
	</g>
	<g>
		<path fill="#231F20" d="M54.001,43.205c-1.545,0-3.09-0.59-4.267-1.766L31.463,23.171c-0.53-0.53-0.53-1.39,0-1.92
			c0.53-0.531,1.391-0.531,1.921,0L51.655,39.52c1.294,1.293,3.399,1.293,4.693,0L73.39,22.477c0.531-0.53,1.391-0.53,1.921,0
			c0.53,0.531,0.53,1.391,0,1.921L58.27,41.439C57.095,42.615,55.547,43.205,54.001,43.205z"/>
	</g>
</g>
</svg>
