<?xml version="1.0" encoding="utf-8"?>
<!-- Generator: Adobe Illustrator 16.0.4, SVG Export Plug-In . SVG Version: 6.00 Build 0)  -->
<!DOCTYPE svg PUBLIC "-//W3C//DTD SVG 1.1//EN" "http://www.w3.org/Graphics/SVG/1.1/DTD/svg11.dtd">
<svg version="1.1" id="Layer_1" xmlns="http://www.w3.org/2000/svg" xmlns:xlink="http://www.w3.org/1999/xlink" x="0px" y="0px"
	 width="81.986px" height="81.986px" viewBox="0 0 81.986 81.986" enable-background="new 0 0 81.986 81.986" xml:space="preserve">
<path d="M59.993,11.243c-16.34-2.614-20,16-20,16c-6.5-19.75-21.75-15.25-21.75-15.25s-7.75,0-12.265,11.325
	c0,0-3.03,7.417,1.668,18.819c-0.086-0.241-0.177-0.486-0.258-0.721h3.189l4.143-5.362c0.267-0.349,0.693-0.518,1.126-0.503
	c0.438,0.035,0.826,0.286,1.038,0.671l3.742,6.8L26.2,25.545c0.18-0.563,0.734-0.938,1.312-0.899
	c0.593,0.034,1.087,0.467,1.197,1.05l4.938,25.68l5.268-14.587c0.178-0.495,0.641-0.833,1.167-0.854
	c0.494-0.038,1.015,0.275,1.233,0.754l2.262,4.922h10.165c0.717,0,1.299,0.581,1.299,1.299c0,0.716-0.582,1.297-1.299,1.297H42.745
	c-0.507,0-0.969-0.295-1.18-0.755l-1.285-2.798l-5.794,16.047c-0.186,0.518-0.675,0.859-1.22,0.859
	c-0.033,0-0.067-0.003-0.102-0.004c-0.583-0.047-1.062-0.477-1.173-1.051l-4.869-25.312l-4.939,15.496
	c-0.157,0.495-0.596,0.848-1.11,0.896c-0.525,0.06-1.014-0.211-1.264-0.666l-4.245-7.711l-3.321,4.3
	c-0.245,0.319-0.625,0.507-1.027,0.507H8.476c0.778,1.654,1.713,3.381,2.847,5.175c9.67,15.304,27.67,25.054,27.67,25.054
	s15-9,26-23.75C75.352,36.603,78.743,14.243,59.993,11.243z"/>
<path d="M7.358,41.417H4.166c-0.717,0-1.299,0.582-1.299,1.299s0.582,1.299,1.299,1.299h4.311
	C8.058,43.127,7.687,42.26,7.358,41.417z"/>
</svg>
