<?xml version="1.0" encoding="utf-8"?>
<!-- Generator: Adobe Illustrator 16.0.4, SVG Export Plug-In . SVG Version: 6.00 Build 0)  -->
<!DOCTYPE svg PUBLIC "-//W3C//DTD SVG 1.1//EN" "http://www.w3.org/Graphics/SVG/1.1/DTD/svg11.dtd">
<svg version="1.1" id="Layer_1" xmlns="http://www.w3.org/2000/svg" xmlns:xlink="http://www.w3.org/1999/xlink" x="0px" y="0px"
	 width="81.986px" height="81.986px" viewBox="0 0 81.986 81.986" enable-background="new 0 0 81.986 81.986" xml:space="preserve">
<g display="none">
	<path display="inline" d="M40.995,60.668c-1.021,0-1.851-0.83-1.853-1.852l-0.023-23.911c-0.002-1.023,0.827-1.852,1.853-1.854
		h0.002c1.021,0,1.851,0.829,1.853,1.853l0.023,23.91c0.002,1.021-0.826,1.854-1.853,1.854L40.995,60.668L40.995,60.668z"/>
</g>
<g display="none">
	<path display="inline" d="M40.991,21.319c-1.104,0-1.998,0.896-1.998,2.001c0,1.104,0.895,2.002,1.998,2.002
		c1.106,0,2.002-0.896,2.002-2.002C42.993,22.216,42.098,21.319,40.991,21.319z"/>
</g>
<path display="none" fill="#FFFFFF" d="M40.994,18.362c-12.479,0-22.633,10.153-22.633,22.63c0,12.48,10.153,22.633,22.633,22.633
	c12.48,0,22.631-10.15,22.631-22.633C63.625,28.515,53.473,18.362,40.994,18.362z M20.872,40.992c0-5.204,2.004-9.938,5.26-13.516
	l28.382,28.377c-3.58,3.256-8.312,5.26-13.52,5.26C29.898,61.113,20.872,52.086,20.872,40.992z M56.266,54.057L27.928,25.722
	c3.519-3.018,8.078-4.853,13.064-4.853c11.094,0,20.119,9.028,20.119,20.121C61.113,45.979,59.279,50.539,56.266,54.057z"/>
<g display="none">
	<path display="inline" fill="#020202" d="M35.781,61.621c-0.394,0-0.779-0.133-1.091-0.382L18.75,48.536
		c-0.756-0.602-0.88-1.703-0.276-2.459c0.602-0.757,1.701-0.88,2.459-0.277l14.535,11.584L58.42,27.059
		c0.583-0.771,1.684-0.925,2.451-0.339c0.771,0.583,0.923,1.681,0.34,2.45L37.176,60.927c-0.282,0.379-0.709,0.622-1.177,0.683
		C35.926,61.616,35.854,61.621,35.781,61.621z"/>
</g>
<path d="M24.183,30.502c0.131-0.304,0.296-0.56,0.397-0.584c0.158-0.024,0.664,0.062,0.996,0.119
	c1.512,0.257,4.323,0.735,6.102-2.184c2.016-3.306,0.585-21.102-1.962-24.413c0,0,0,0,0,0c-0.163-0.212-0.333-0.383-0.522-0.527
	C25.7,0.263,19.3,4.66,19.239,4.707C18.122,5.567,8.282,13.278,6.861,19.08c-0.752,3.072,1.763,17.452,16.506,36.605
	C40.302,77.686,53.388,79.677,53.509,79.68c5.973,0.109,15.943-7.431,17.062-8.29c0.06-0.047,5.947-5.109,4.281-9.166
	c-0.09-0.214-0.216-0.431-0.377-0.641c-2.547-3.309-19.386-9.244-23.096-8.142c-3.276,0.973-3.534,3.813-3.674,5.34
	c-0.029,0.335-0.076,0.847-0.134,0.983c-0.05,0.093-0.337,0.193-0.676,0.243c0,0-6.641-6.918-12.209-14.15
	C29.118,38.623,24.183,30.502,24.183,30.502z"/>
</svg>
