<?xml version="1.0" encoding="utf-8"?>
<!-- Generator: Adobe Illustrator 16.0.4, SVG Export Plug-In . SVG Version: 6.00 Build 0)  -->
<!DOCTYPE svg PUBLIC "-//W3C//DTD SVG 1.1//EN" "http://www.w3.org/Graphics/SVG/1.1/DTD/svg11.dtd">
<svg version="1.1" id="Layer_1" xmlns="http://www.w3.org/2000/svg" xmlns:xlink="http://www.w3.org/1999/xlink" x="0px" y="0px"
	 width="81.986px" height="81.986px" viewBox="0 0 81.986 81.986" enable-background="new 0 0 81.986 81.986" xml:space="preserve">
<g display="none">
	<path display="inline" d="M40.995,60.668c-1.021,0-1.851-0.83-1.853-1.852l-0.023-23.911c-0.002-1.023,0.827-1.852,1.851-1.854
		h0.002c1.022,0,1.851,0.829,1.853,1.851l0.023,23.91c0.002,1.023-0.826,1.854-1.851,1.855H40.995z"/>
</g>
<g display="none">
	<path display="inline" d="M40.991,21.319c-1.105,0-1.998,0.897-1.998,2.001c0,1.106,0.893,2.002,1.998,2.002
		c1.106,0,2.002-0.896,2.002-2.002C42.993,22.216,42.098,21.319,40.991,21.319z"/>
</g>
<path display="none" fill="#FFFFFF" d="M40.994,18.362c-12.48,0-22.633,10.153-22.633,22.63c0,12.48,10.153,22.633,22.633,22.633
	c12.479,0,22.631-10.152,22.631-22.633C63.625,28.515,53.473,18.362,40.994,18.362z M20.872,40.992c0-5.204,2.004-9.939,5.26-13.516
	l28.38,28.377c-3.58,3.256-8.312,5.26-13.518,5.26C29.898,61.113,20.872,52.086,20.872,40.992z M56.266,54.057L27.928,25.722
	c3.519-3.016,8.08-4.851,13.066-4.851c11.094,0,20.119,9.028,20.119,20.121C61.113,45.979,59.279,50.539,56.266,54.057z"/>
<g display="none">
	<path display="inline" fill="#020202" d="M35.781,61.621c-0.394,0-0.779-0.133-1.091-0.382L18.75,48.536
		c-0.756-0.602-0.88-1.703-0.278-2.459c0.602-0.757,1.703-0.88,2.459-0.277l14.537,11.584L58.42,27.059
		c0.583-0.771,1.682-0.923,2.451-0.339c0.771,0.583,0.923,1.681,0.34,2.452L37.176,60.927c-0.284,0.377-0.709,0.622-1.177,0.681
		C35.926,61.616,35.854,61.621,35.781,61.621z"/>
</g>
<g>
	<g>
		<path fill="#231F20" d="M52.492,19.152H29.493v-4.649c0-2.565,2.088-4.651,4.651-4.651h2.201V9.291
			c0-2.565,2.083-4.651,4.647-4.651c2.566,0,4.652,2.086,4.652,4.651v0.561h2.195c2.564,0,4.652,2.086,4.652,4.651V19.152z
			 M31.901,16.745h18.183v-2.242c0-1.237-1.006-2.243-2.244-2.243h-4.605V9.291c0-1.237-1.004-2.243-2.242-2.243
			c-1.236,0-2.242,1.006-2.242,2.243v2.969h-4.605c-1.237,0-2.243,1.006-2.243,2.243V16.745z"/>
	</g>
	<g>
		<path fill="#010101" d="M63.867,77.347H18.119c-1.993,0-3.611-1.62-3.611-3.612V17.151c0-1.993,1.619-3.612,3.611-3.612h7.223
			c0.666,0,1.204,0.539,1.204,1.204s-0.538,1.204-1.204,1.204h-7.223c-0.663,0-1.203,0.54-1.203,1.204v56.583
			c0,0.663,0.54,1.203,1.203,1.203h45.749c0.664,0,1.203-0.54,1.203-1.203V17.151c0-0.665-0.539-1.204-1.203-1.204h-7.223
			c-0.666,0-1.203-0.539-1.203-1.204s0.537-1.204,1.203-1.204h7.223c1.992,0,3.611,1.621,3.611,3.612v56.583
			C67.479,75.727,65.859,77.347,63.867,77.347z"/>
	</g>
	<g>
		<path fill="#010101" d="M57.74,71.327H24.031c-1.993,0-3.611-1.621-3.611-3.612V23.17c0-0.665,0.538-1.204,1.204-1.204
			c0.665,0,1.205,0.54,1.205,1.204v44.544c0,0.664,0.54,1.204,1.203,1.204H57.74c0.666,0,1.205-0.54,1.205-1.204V23.17
			c0-0.665,0.537-1.204,1.203-1.204s1.205,0.54,1.205,1.204v44.544C61.354,69.706,59.732,71.327,57.74,71.327z"/>
	</g>
</g>
</svg>
