<?xml version="1.0" encoding="utf-8"?>
<!-- Generator: Adobe Illustrator 16.0.4, SVG Export Plug-In . SVG Version: 6.00 Build 0)  -->
<!DOCTYPE svg PUBLIC "-//W3C//DTD SVG 1.1//EN" "http://www.w3.org/Graphics/SVG/1.1/DTD/svg11.dtd">
<svg version="1.1" id="Layer_1" xmlns="http://www.w3.org/2000/svg" xmlns:xlink="http://www.w3.org/1999/xlink" x="0px" y="0px"
	 width="81.986px" height="81.986px" viewBox="0 0 81.986 81.986" enable-background="new 0 0 81.986 81.986" xml:space="preserve">
<g display="none">
	<path display="inline" d="M40.995,60.668c-1.021,0-1.851-0.83-1.853-1.852l-0.023-23.911c-0.002-1.023,0.827-1.852,1.851-1.854
		h0.002c1.022,0,1.851,0.829,1.853,1.851l0.023,23.91c0.002,1.023-0.826,1.854-1.851,1.855H40.995z"/>
</g>
<g display="none">
	<path display="inline" d="M40.991,21.319c-1.105,0-1.998,0.897-1.998,2.001c0,1.106,0.893,2.002,1.998,2.002
		c1.106,0,2.002-0.896,2.002-2.002C42.993,22.216,42.098,21.319,40.991,21.319z"/>
</g>
<path display="none" fill="#FFFFFF" d="M40.994,18.362c-12.48,0-22.633,10.153-22.633,22.63c0,12.48,10.153,22.633,22.633,22.633
	c12.479,0,22.631-10.152,22.631-22.633C63.625,28.515,53.473,18.362,40.994,18.362z M20.872,40.992c0-5.204,2.004-9.939,5.26-13.516
	l28.38,28.377c-3.58,3.256-8.312,5.26-13.518,5.26C29.898,61.113,20.872,52.086,20.872,40.992z M56.266,54.057L27.928,25.722
	c3.519-3.016,8.08-4.851,13.066-4.851c11.094,0,20.119,9.028,20.119,20.121C61.113,45.979,59.279,50.539,56.266,54.057z"/>
<g display="none">
	<path display="inline" fill="#020202" d="M35.781,61.621c-0.394,0-0.779-0.133-1.091-0.382L18.75,48.536
		c-0.756-0.602-0.88-1.703-0.278-2.459c0.602-0.757,1.703-0.88,2.459-0.277l14.537,11.584L58.42,27.059
		c0.583-0.771,1.682-0.923,2.451-0.339c0.771,0.583,0.923,1.681,0.34,2.452L37.176,60.927c-0.284,0.377-0.709,0.622-1.177,0.681
		C35.926,61.616,35.854,61.621,35.781,61.621z"/>
</g>
<g>
	<path d="M34.165,68.008L17.088,52.939H6.357c-0.9,0-1.63-0.729-1.63-1.629V30.676c0-0.899,0.729-1.629,1.63-1.629h10.73
		l17.077-15.068c0.479-0.424,1.165-0.527,1.749-0.264c0.583,0.264,0.96,0.845,0.96,1.486v51.584c0,0.642-0.377,1.223-0.96,1.485
		c-0.215,0.098-0.444,0.145-0.671,0.145C34.853,68.415,34.468,68.275,34.165,68.008z M18.783,31.899
		c-0.298,0.263-0.683,0.407-1.079,0.407H7.988V49.68h9.716c0.396,0,0.781,0.145,1.079,0.407l14.83,13.085V18.814L18.783,31.899z"/>
</g>
<g>
	<path d="M54.502,62.186c0.438,0,0.878-0.177,1.199-0.525c0.373-0.402,9.125-10.01,9.125-20.667c0-10.662-8.752-20.264-9.125-20.667
		c-0.611-0.66-1.642-0.705-2.303-0.091c-0.662,0.609-0.705,1.641-0.094,2.303c0.083,0.09,8.262,9.084,8.262,18.456
		c0,9.396-8.179,18.367-8.262,18.456c-0.611,0.662-0.568,1.693,0.093,2.302C53.712,62.042,54.107,62.186,54.502,62.186z"/>
</g>
<g>
	<path d="M46.764,53.703c0.439,0,0.877-0.177,1.197-0.524c0.219-0.237,5.359-5.877,5.359-12.189c0-6.309-5.141-11.946-5.359-12.182
		c-0.611-0.66-1.638-0.705-2.3-0.091c-0.663,0.609-0.703,1.638-0.096,2.301c0.044,0.049,4.495,4.952,4.495,9.972
		c0,5.052-4.449,9.929-4.494,9.978c-0.61,0.662-0.57,1.694,0.092,2.304C45.973,53.562,46.369,53.703,46.764,53.703z"/>
</g>
</svg>
