<?xml version="1.0" encoding="utf-8"?>
<!-- Generator: Adobe Illustrator 16.0.4, SVG Export Plug-In . SVG Version: 6.00 Build 0)  -->
<!DOCTYPE svg PUBLIC "-//W3C//DTD SVG 1.1//EN" "http://www.w3.org/Graphics/SVG/1.1/DTD/svg11.dtd">
<svg version="1.1" id="Layer_1" xmlns="http://www.w3.org/2000/svg" xmlns:xlink="http://www.w3.org/1999/xlink" x="0px" y="0px"
	 width="81.986px" height="81.986px" viewBox="0 0 81.986 81.986" enable-background="new 0 0 81.986 81.986" xml:space="preserve">
<g display="none">
	<path display="inline" d="M40.995,60.668c-1.021,0-1.851-0.83-1.853-1.852l-0.023-23.911c-0.002-1.023,0.827-1.852,1.852-1.854
		h0.002c1.021,0,1.851,0.829,1.853,1.852l0.023,23.91c0.002,1.022-0.826,1.854-1.852,1.854L40.995,60.668L40.995,60.668z"/>
</g>
<g display="none">
	<path display="inline" d="M40.991,21.319c-1.104,0-1.998,0.896-1.998,2.001c0,1.105,0.894,2.002,1.998,2.002
		c1.106,0,2.002-0.896,2.002-2.002C42.993,22.216,42.098,21.319,40.991,21.319z"/>
</g>
<path display="none" fill="#FFFFFF" d="M40.994,18.362c-12.479,0-22.633,10.153-22.633,22.63c0,12.48,10.153,22.633,22.633,22.633
	s22.631-10.151,22.631-22.633C63.625,28.515,53.473,18.362,40.994,18.362z M20.872,40.992c0-5.204,2.004-9.938,5.26-13.516
	l28.381,28.377c-3.58,3.256-8.312,5.26-13.519,5.26C29.898,61.113,20.872,52.086,20.872,40.992z M56.266,54.057L27.928,25.722
	c3.519-3.017,8.079-4.852,13.065-4.852c11.094,0,20.119,9.028,20.119,20.121C61.113,45.979,59.279,50.539,56.266,54.057z"/>
<g display="none">
	<path display="inline" fill="#020202" d="M35.781,61.621c-0.394,0-0.779-0.133-1.091-0.382L18.75,48.536
		c-0.756-0.602-0.88-1.703-0.277-2.459c0.602-0.757,1.702-0.88,2.459-0.277l14.536,11.584L58.42,27.059
		c0.583-0.771,1.683-0.924,2.451-0.339c0.771,0.583,0.923,1.681,0.34,2.451L37.176,60.927c-0.283,0.378-0.709,0.622-1.177,0.682
		C35.926,61.616,35.854,61.621,35.781,61.621z"/>
</g>
<path d="M75.541,72.381L51.385,48.225c-0.076-0.076-0.162-0.136-0.245-0.2l2.24-3.048c6.15-10.151,4.875-23.576-3.884-32.334
	C44.51,7.656,37.881,4.91,30.83,4.91s-13.68,2.747-18.666,7.732c-4.985,4.983-7.732,11.612-7.732,18.667
	c0,7.051,2.747,13.68,7.732,18.665c4.986,4.985,11.615,7.732,18.666,7.732c5.239,0,10.244-1.522,14.517-4.347l2.278-1.876
	c0.071,0.095,0.14,0.19,0.226,0.276l24.155,24.155c0.488,0.488,1.128,0.732,1.768,0.732s1.279-0.244,1.768-0.732
	C76.517,74.939,76.517,73.357,75.541,72.381z M30.83,54.52c-6.199,0-12.028-2.415-16.412-6.799c-4.385-4.384-6.8-10.213-6.8-16.412
	c0-6.201,2.415-12.031,6.8-16.415C18.802,10.51,24.63,8.096,30.83,8.096s12.027,2.414,16.414,6.798
	c9.049,9.049,9.049,23.777,0,32.826C42.857,52.105,37.03,54.52,30.83,54.52z"/>
<path fill="#231F20" d="M76.368,75.243"/>
<path fill="#231F20" d="M75.812,75.616"/>
</svg>
