<?xml version="1.0" encoding="utf-8"?>
<!-- Generator: Adobe Illustrator 16.0.4, SVG Export Plug-In . SVG Version: 6.00 Build 0)  -->
<!DOCTYPE svg PUBLIC "-//W3C//DTD SVG 1.1//EN" "http://www.w3.org/Graphics/SVG/1.1/DTD/svg11.dtd">
<svg version="1.1" id="Layer_1" xmlns="http://www.w3.org/2000/svg" xmlns:xlink="http://www.w3.org/1999/xlink" x="0px" y="0px"
	 width="81.986px" height="81.986px" viewBox="0 0 81.986 81.986" enable-background="new 0 0 81.986 81.986" xml:space="preserve">
<g>
	<path d="M18.223,77.251c-0.192,0-0.385-0.041-0.566-0.122c-0.517-0.236-0.833-0.771-0.793-1.337l4.943-69.776
		c0.051-0.713,0.645-1.267,1.36-1.267h35.142c0.712,0,1.304,0.547,1.359,1.256l5.454,68.77c0.044,0.57-0.27,1.108-0.789,1.346
		c-0.518,0.242-1.132,0.13-1.535-0.273L41.493,54.543L19.187,76.852C18.925,77.112,18.577,77.251,18.223,77.251z M24.437,7.475
		l-4.596,64.867l20.688-20.689c0.532-0.533,1.395-0.533,1.928,0l19.654,19.651L57.048,7.475H24.437z"/>
</g>
<g>
	<path d="M28.088,55.949c-0.391,0-0.777-0.166-1.047-0.488c-0.483-0.578-0.406-1.437,0.172-1.92l13.827-11.56
		c0.535-0.448,1.321-0.419,1.821,0.063l11.984,11.56c0.541,0.523,0.558,1.387,0.036,1.928c-0.522,0.542-1.386,0.559-1.929,0.036
		L41.85,44.858L28.961,55.632C28.707,55.846,28.396,55.949,28.088,55.949z"/>
</g>
</svg>
