<?xml version="1.0" encoding="utf-8"?>
<!-- Generator: Adobe Illustrator 16.0.4, SVG Export Plug-In . SVG Version: 6.00 Build 0)  -->
<!DOCTYPE svg PUBLIC "-//W3C//DTD SVG 1.1//EN" "http://www.w3.org/Graphics/SVG/1.1/DTD/svg11.dtd">
<svg version="1.1" id="Layer_1" xmlns="http://www.w3.org/2000/svg" xmlns:xlink="http://www.w3.org/1999/xlink" x="0px" y="0px"
	 width="81.986px" height="81.986px" viewBox="0 0 81.986 81.986" enable-background="new 0 0 81.986 81.986" xml:space="preserve">
<g display="none">
	<path display="inline" d="M40.995,60.668c-1.021,0-1.851-0.83-1.853-1.852l-0.023-23.911c-0.002-1.023,0.827-1.852,1.851-1.854
		h0.002c1.022,0,1.851,0.829,1.853,1.851l0.023,23.91c0.002,1.023-0.826,1.854-1.851,1.855H40.995z"/>
</g>
<g display="none">
	<path display="inline" d="M40.991,21.319c-1.105,0-1.998,0.897-1.998,2.001c0,1.106,0.893,2.002,1.998,2.002
		c1.106,0,2.002-0.896,2.002-2.002C42.993,22.216,42.098,21.319,40.991,21.319z"/>
</g>
<path display="none" fill="#FFFFFF" d="M40.994,18.362c-12.48,0-22.633,10.153-22.633,22.63c0,12.48,10.153,22.633,22.633,22.633
	c12.479,0,22.631-10.152,22.631-22.633C63.625,28.515,53.473,18.362,40.994,18.362z M20.872,40.992c0-5.204,2.004-9.939,5.26-13.516
	l28.38,28.377c-3.58,3.256-8.312,5.26-13.518,5.26C29.898,61.113,20.872,52.086,20.872,40.992z M56.266,54.057L27.928,25.722
	c3.519-3.016,8.08-4.851,13.066-4.851c11.094,0,20.119,9.028,20.119,20.121C61.113,45.979,59.279,50.539,56.266,54.057z"/>
<g display="none">
	<path display="inline" fill="#020202" d="M35.781,61.621c-0.394,0-0.779-0.133-1.091-0.382L18.75,48.536
		c-0.756-0.602-0.88-1.703-0.278-2.459c0.602-0.757,1.703-0.88,2.459-0.277l14.537,11.584L58.42,27.059
		c0.583-0.771,1.682-0.923,2.451-0.339c0.771,0.583,0.923,1.681,0.34,2.452L37.176,60.927c-0.284,0.377-0.709,0.622-1.177,0.681
		C35.926,61.616,35.854,61.621,35.781,61.621z"/>
</g>
<g>
	<path d="M34.165,68.008L17.088,52.939H6.357c-0.9,0-1.63-0.729-1.63-1.629V30.676c0-0.899,0.729-1.629,1.63-1.629h10.73
		l17.077-15.068c0.479-0.424,1.165-0.527,1.749-0.264c0.583,0.264,0.96,0.845,0.96,1.486v51.584c0,0.642-0.377,1.223-0.96,1.485
		c-0.215,0.098-0.444,0.145-0.671,0.145C34.853,68.415,34.468,68.275,34.165,68.008z M18.783,31.899
		c-0.298,0.263-0.683,0.407-1.079,0.407H7.988V49.68h9.716c0.396,0,0.781,0.145,1.079,0.407l14.83,13.085V18.814L18.783,31.899z"/>
</g>
<path fill="#231F20" d="M75.479,59.09c-0.459,0-0.891-0.18-1.218-0.507L59.735,44.06L45.213,58.583
	c-0.322,0.326-0.756,0.507-1.217,0.507c-0.463,0-0.898-0.181-1.224-0.508c-0.324-0.324-0.504-0.757-0.504-1.218
	c0-0.46,0.179-0.893,0.504-1.219l14.523-14.524L42.773,27.098c-0.672-0.674-0.671-1.768,0-2.438c0.323-0.326,0.758-0.506,1.22-0.506
	s0.896,0.181,1.222,0.509l14.521,14.519L74.258,24.66c0.324-0.326,0.758-0.507,1.22-0.507c0.46,0,0.894,0.18,1.221,0.507
	c0.67,0.67,0.671,1.763,0.002,2.437L62.175,41.621l14.526,14.523c0.326,0.327,0.506,0.76,0.506,1.22c0,0.461-0.181,0.894-0.507,1.22
	S75.94,59.09,75.479,59.09z"/>
</svg>
