<?xml version="1.0" encoding="utf-8"?>
<!-- Generator: Adobe Illustrator 16.0.4, SVG Export Plug-In . SVG Version: 6.00 Build 0)  -->
<!DOCTYPE svg PUBLIC "-//W3C//DTD SVG 1.1//EN" "http://www.w3.org/Graphics/SVG/1.1/DTD/svg11.dtd">
<svg version="1.1" id="Layer_1" xmlns="http://www.w3.org/2000/svg" xmlns:xlink="http://www.w3.org/1999/xlink" x="0px" y="0px"
	 width="81.986px" height="81.986px" viewBox="0 0 81.986 81.986" enable-background="new 0 0 81.986 81.986" xml:space="preserve">
<g display="none">
	<path display="inline" d="M40.995,60.668c-1.021,0-1.851-0.83-1.853-1.852l-0.023-23.911c-0.002-1.023,0.827-1.852,1.851-1.854
		h0.002c1.022,0,1.851,0.829,1.853,1.851l0.023,23.91c0.002,1.023-0.826,1.854-1.851,1.855H40.995z"/>
</g>
<g display="none">
	<path display="inline" d="M40.991,21.319c-1.105,0-1.998,0.897-1.998,2.001c0,1.106,0.893,2.002,1.998,2.002
		c1.106,0,2.002-0.896,2.002-2.002C42.993,22.216,42.098,21.319,40.991,21.319z"/>
</g>
<path fill="#231F20" d="M40.994,4.531C20.894,4.536,4.536,20.893,4.531,40.993c0.005,20.103,16.362,36.459,36.463,36.462
	c20.1-0.003,36.457-16.359,36.461-36.462C77.451,20.894,61.094,4.537,40.994,4.531z M7.031,40.993
	c0.002-8.858,3.417-16.933,8.995-22.986L63.98,65.961c-6.053,5.578-14.128,8.993-22.986,8.994
	C22.271,74.952,7.036,59.717,7.031,40.993z M65.961,63.98L18.007,16.026c6.053-5.578,14.128-8.993,22.987-8.995
	c18.723,0.005,33.957,15.241,33.961,33.962C74.953,49.853,71.538,57.927,65.961,63.98z"/>
</svg>
