<?xml version="1.0" encoding="utf-8"?>
<!-- Generator: Adobe Illustrator 16.0.4, SVG Export Plug-In . SVG Version: 6.00 Build 0)  -->
<!DOCTYPE svg PUBLIC "-//W3C//DTD SVG 1.1//EN" "http://www.w3.org/Graphics/SVG/1.1/DTD/svg11.dtd">
<svg version="1.1" id="Layer_1" xmlns="http://www.w3.org/2000/svg" xmlns:xlink="http://www.w3.org/1999/xlink" x="0px" y="0px"
	 width="81.986px" height="81.986px" viewBox="0 0 81.986 81.986" enable-background="new 0 0 81.986 81.986" xml:space="preserve">
<g display="none">
	<path display="inline" d="M40.995,60.668c-1.021,0-1.851-0.83-1.853-1.852l-0.023-23.911c-0.002-1.023,0.827-1.852,1.851-1.854
		h0.002c1.022,0,1.851,0.829,1.853,1.851l0.023,23.91c0.002,1.023-0.826,1.854-1.851,1.855H40.995z"/>
</g>
<g display="none">
	<path display="inline" d="M40.991,21.319c-1.105,0-1.998,0.897-1.998,2.001c0,1.106,0.893,2.002,1.998,2.002
		c1.106,0,2.002-0.896,2.002-2.002C42.993,22.216,42.098,21.319,40.991,21.319z"/>
</g>
<path display="none" fill="#FFFFFF" d="M40.994,18.362c-12.48,0-22.633,10.153-22.633,22.63c0,12.48,10.153,22.633,22.633,22.633
	c12.479,0,22.631-10.152,22.631-22.633C63.625,28.515,53.473,18.362,40.994,18.362z M20.872,40.992c0-5.204,2.004-9.939,5.26-13.516
	l28.38,28.377c-3.58,3.256-8.312,5.26-13.518,5.26C29.898,61.113,20.872,52.086,20.872,40.992z M56.266,54.057L27.928,25.722
	c3.519-3.016,8.08-4.851,13.066-4.851c11.094,0,20.119,9.028,20.119,20.121C61.113,45.979,59.279,50.539,56.266,54.057z"/>
<g display="none">
	<path display="inline" fill="#020202" d="M35.781,61.621c-0.394,0-0.779-0.133-1.091-0.382L18.75,48.536
		c-0.756-0.602-0.88-1.703-0.278-2.459c0.602-0.757,1.703-0.88,2.459-0.277l14.537,11.584L58.42,27.059
		c0.583-0.771,1.682-0.923,2.451-0.339c0.771,0.583,0.923,1.681,0.34,2.452L37.176,60.927c-0.284,0.377-0.709,0.622-1.177,0.681
		C35.926,61.616,35.854,61.621,35.781,61.621z"/>
</g>
<g>
	<g>
		<path d="M77.042,32.264c-0.501-0.496-1.307-0.486-1.801,0.013l-7.622,7.748c-0.712-14.171-12.431-25.492-26.777-25.492
			c-9.534,0-17.901,5.01-22.665,12.521h3.08c4.426-6.033,11.544-9.974,19.584-9.974c13.127,0,23.829,10.47,24.259,23.494
			l-10.679-5.852c-0.615-0.336-1.391-0.111-1.729,0.505c-0.339,0.618-0.111,1.392,0.505,1.729l12.809,7.019
			c0.192,0.104,0.402,0.154,0.61,0.154c0.335,0,0.662-0.13,0.908-0.379l9.53-9.687C77.55,33.562,77.543,32.756,77.042,32.264z"/>
	</g>
	<g>
		<path d="M5.123,52.055c0.5,0.495,1.306,0.485,1.8-0.014l7.623-7.748c0.711,14.171,12.431,25.491,26.777,25.491
			c9.533,0,17.901-5.011,22.665-12.521h-3.081c-4.427,6.033-11.544,9.975-19.584,9.975c-13.127,0-23.829-10.47-24.259-23.494
			l10.679,5.852c0.616,0.337,1.391,0.111,1.728-0.505c0.338-0.617,0.112-1.391-0.505-1.73l-12.808-7.018
			c-0.193-0.104-0.403-0.155-0.611-0.155c-0.334,0-0.663,0.13-0.909,0.379l-9.53,9.688C4.615,50.756,4.622,51.562,5.123,52.055z"/>
	</g>
</g>
</svg>
