<?xml version="1.0" encoding="utf-8"?>
<!-- Generator: Adobe Illustrator 16.0.4, SVG Export Plug-In . SVG Version: 6.00 Build 0)  -->
<!DOCTYPE svg PUBLIC "-//W3C//DTD SVG 1.1//EN" "http://www.w3.org/Graphics/SVG/1.1/DTD/svg11.dtd">
<svg version="1.1" id="Layer_1" xmlns="http://www.w3.org/2000/svg" xmlns:xlink="http://www.w3.org/1999/xlink" x="0px" y="0px"
	 width="81.986px" height="81.986px" viewBox="0 0 81.986 81.986" enable-background="new 0 0 81.986 81.986" xml:space="preserve">
<g>
	<path fill="#231F20" d="M7.792,6.896c0,21.451,15.733,36.463,40.239,38.606V33.169c0-0.611,0.351-1.171,0.902-1.439
		c0.545-0.268,1.205-0.194,1.687,0.185l26.161,20.594c0.381,0.299,0.605,0.755,0.609,1.24c0.004,0.486-0.211,0.946-0.588,1.252
		L50.64,76.33c-0.473,0.388-1.139,0.468-1.694,0.205c-0.559-0.265-0.914-0.826-0.914-1.443V62.49
		C21.59,59.562,4.596,37.907,4.596,6.896c0-0.882,0.716-1.598,1.598-1.598C7.076,5.298,7.792,6.014,7.792,6.896z M73.236,53.784
		L51.229,36.461v10.766c0,0.439-0.183,0.862-0.504,1.164c-0.322,0.302-0.758,0.458-1.195,0.432
		c-16.89-1.055-30.082-7.758-37.687-18.346c6.372,16.706,19.89,27.464,37.921,28.971c0.828,0.07,1.465,0.762,1.465,1.592v10.688
		L73.236,53.784z"/>
</g>
</svg>
