<?xml version="1.0" encoding="utf-8"?>
<!-- Generator: Adobe Illustrator 16.0.4, SVG Export Plug-In . SVG Version: 6.00 Build 0)  -->
<!DOCTYPE svg PUBLIC "-//W3C//DTD SVG 1.1//EN" "http://www.w3.org/Graphics/SVG/1.1/DTD/svg11.dtd">
<svg version="1.1" id="Layer_1" xmlns="http://www.w3.org/2000/svg" xmlns:xlink="http://www.w3.org/1999/xlink" x="0px" y="0px"
	 width="81.986px" height="81.986px" viewBox="0 0 81.986 81.986" enable-background="new 0 0 81.986 81.986" xml:space="preserve">
<g>
	<path fill="#231F20" d="M75.793,5.298c0.882,0,1.598,0.716,1.598,1.598c0,31.012-16.994,52.667-43.436,55.595v12.602
		c0,0.617-0.355,1.179-0.914,1.443c-0.556,0.263-1.222,0.183-1.694-0.205L5.184,55c-0.377-0.306-0.592-0.766-0.588-1.252
		c0.004-0.485,0.229-0.941,0.609-1.24l26.161-20.594c0.481-0.379,1.142-0.452,1.687-0.185c0.552,0.269,0.902,0.828,0.902,1.439
		v12.333c24.506-2.144,40.239-17.155,40.239-38.606C74.194,6.014,74.91,5.298,75.793,5.298z M30.758,71.727V61.039
		c0-0.83,0.637-1.521,1.465-1.592c18.031-1.507,31.549-12.265,37.921-28.971c-7.604,10.588-20.797,17.291-37.687,18.346
		c-0.438,0.026-0.873-0.13-1.195-0.432c-0.321-0.302-0.504-0.725-0.504-1.164V36.461L8.75,53.784L30.758,71.727z"/>
</g>
</svg>
