<?xml version="1.0" encoding="utf-8"?>
<!-- Generator: Adobe Illustrator 16.0.4, SVG Export Plug-In . SVG Version: 6.00 Build 0)  -->
<!DOCTYPE svg PUBLIC "-//W3C//DTD SVG 1.1//EN" "http://www.w3.org/Graphics/SVG/1.1/DTD/svg11.dtd">
<svg version="1.1" id="Layer_1" xmlns="http://www.w3.org/2000/svg" xmlns:xlink="http://www.w3.org/1999/xlink" x="0px" y="0px"
	 width="81.986px" height="81.986px" viewBox="0 0 81.986 81.986" enable-background="new 0 0 81.986 81.986" xml:space="preserve">
<g>
	<path fill="#231F20" d="M74.194,75.091c0-21.451-15.733-36.463-40.239-38.606v12.333c0,0.611-0.351,1.171-0.902,1.439
		c-0.545,0.268-1.205,0.194-1.687-0.185L5.205,29.479C4.824,29.18,4.6,28.724,4.596,28.238c-0.004-0.487,0.211-0.946,0.588-1.252
		l26.163-21.33c0.473-0.387,1.139-0.467,1.694-0.205c0.559,0.265,0.914,0.827,0.914,1.444v12.601
		c26.441,2.928,43.436,24.583,43.436,55.595c0,0.882-0.716,1.598-1.598,1.598C74.91,76.688,74.194,75.973,74.194,75.091z
		 M8.75,28.202l22.008,17.323V34.76c0-0.439,0.183-0.863,0.504-1.164c0.322-0.302,0.758-0.458,1.195-0.432
		c16.89,1.054,30.082,7.757,37.687,18.345c-6.372-16.706-19.89-27.464-37.921-28.971c-0.828-0.07-1.465-0.761-1.465-1.592V10.26
		L8.75,28.202z"/>
</g>
</svg>
