<?xml version="1.0" encoding="utf-8"?>
<!-- Generator: Adobe Illustrator 16.0.4, SVG Export Plug-In . SVG Version: 6.00 Build 0)  -->
<!DOCTYPE svg PUBLIC "-//W3C//DTD SVG 1.1//EN" "http://www.w3.org/Graphics/SVG/1.1/DTD/svg11.dtd">
<svg version="1.1" id="Layer_1" xmlns="http://www.w3.org/2000/svg" xmlns:xlink="http://www.w3.org/1999/xlink" x="0px" y="0px"
	 width="81.986px" height="81.986px" viewBox="0 0 81.986 81.986" enable-background="new 0 0 81.986 81.986" xml:space="preserve">
<g display="none">
	<path display="inline" d="M40.995,60.668c-1.021,0-1.851-0.83-1.853-1.852l-0.023-23.911c-0.002-1.023,0.827-1.852,1.851-1.854
		h0.002c1.022,0,1.851,0.829,1.853,1.851l0.023,23.91c0.002,1.023-0.826,1.854-1.851,1.855H40.995z"/>
</g>
<g display="none">
	<path display="inline" d="M40.991,21.319c-1.105,0-1.998,0.897-1.998,2.001c0,1.106,0.893,2.002,1.998,2.002
		c1.106,0,2.002-0.896,2.002-2.002C42.993,22.216,42.098,21.319,40.991,21.319z"/>
</g>
<path display="none" fill="#FFFFFF" d="M40.994,18.362c-12.48,0-22.633,10.153-22.633,22.63c0,12.48,10.153,22.633,22.633,22.633
	c12.479,0,22.631-10.152,22.631-22.633C63.625,28.515,53.473,18.362,40.994,18.362z M20.872,40.992c0-5.204,2.004-9.939,5.26-13.516
	l28.38,28.377c-3.58,3.256-8.312,5.26-13.518,5.26C29.898,61.113,20.872,52.086,20.872,40.992z M56.266,54.057L27.928,25.722
	c3.519-3.016,8.08-4.851,13.066-4.851c11.094,0,20.119,9.028,20.119,20.121C61.113,45.979,59.279,50.539,56.266,54.057z"/>
<g display="none">
	<path display="inline" fill="#020202" d="M35.781,61.621c-0.394,0-0.779-0.133-1.091-0.382L18.75,48.536
		c-0.756-0.602-0.88-1.703-0.278-2.459c0.602-0.757,1.703-0.88,2.459-0.277l14.537,11.584L58.42,27.059
		c0.583-0.771,1.682-0.923,2.451-0.339c0.771,0.583,0.923,1.681,0.34,2.452L37.176,60.927c-0.284,0.377-0.709,0.622-1.177,0.681
		C35.926,61.616,35.854,61.621,35.781,61.621z"/>
</g>
<g>
	<path fill="#231F20" d="M32.69,65.683c-0.52-0.309-0.838-0.867-0.838-1.47V52.158L7.025,65.713c-0.532,0.29-1.173,0.279-1.692-0.03
		c-0.52-0.309-0.838-0.867-0.838-1.47v-46.44c0-0.606,0.321-1.166,0.842-1.473c0.521-0.308,1.167-0.316,1.696-0.023l24.819,13.749
		V17.773c0-0.606,0.32-1.166,0.842-1.473c0.521-0.308,1.167-0.316,1.696-0.023l42.219,23.388c0.545,0.303,0.884,0.878,0.882,1.501
		c-0.003,0.623-0.343,1.197-0.891,1.495L34.382,65.713c-0.256,0.141-0.537,0.21-0.819,0.21C33.26,65.923,32.959,65.843,32.69,65.683
		z M34.436,47.808c0.519,0.308,0.837,0.866,0.837,1.469v12.056l36.962-20.183L35.272,20.674v12.253c0,0.605-0.321,1.166-0.842,1.473
		c-0.521,0.308-1.164,0.315-1.696,0.023L7.915,20.674v40.658l24.828-13.555c0.256-0.142,0.537-0.209,0.819-0.209
		C33.865,47.568,34.166,47.648,34.436,47.808z"/>
</g>
</svg>
