<?xml version="1.0" encoding="utf-8"?>
<!-- Generator: Adobe Illustrator 16.0.4, SVG Export Plug-In . SVG Version: 6.00 Build 0)  -->
<!DOCTYPE svg PUBLIC "-//W3C//DTD SVG 1.1//EN" "http://www.w3.org/Graphics/SVG/1.1/DTD/svg11.dtd">
<svg version="1.1" id="Layer_1" xmlns="http://www.w3.org/2000/svg" xmlns:xlink="http://www.w3.org/1999/xlink" x="0px" y="0px"
	 width="81.986px" height="81.986px" viewBox="0 0 81.986 81.986" enable-background="new 0 0 81.986 81.986" xml:space="preserve">
<g display="none">
	<path display="inline" d="M40.995,60.668c-1.021,0-1.851-0.83-1.853-1.852l-0.023-23.911c-0.002-1.023,0.827-1.852,1.852-1.854
		h0.002c1.021,0,1.851,0.829,1.853,1.852l0.023,23.91c0.002,1.022-0.826,1.854-1.852,1.854L40.995,60.668L40.995,60.668z"/>
</g>
<g display="none">
	<path display="inline" d="M40.991,21.319c-1.104,0-1.998,0.896-1.998,2.001c0,1.105,0.894,2.002,1.998,2.002
		c1.106,0,2.002-0.896,2.002-2.002C42.993,22.216,42.098,21.319,40.991,21.319z"/>
</g>
<path display="none" fill="#FFFFFF" d="M40.994,18.362c-12.479,0-22.633,10.153-22.633,22.63c0,12.48,10.153,22.633,22.633,22.633
	s22.631-10.151,22.631-22.633C63.625,28.515,53.473,18.362,40.994,18.362z M20.872,40.992c0-5.204,2.004-9.938,5.26-13.516
	l28.381,28.377c-3.58,3.256-8.312,5.26-13.519,5.26C29.898,61.113,20.872,52.086,20.872,40.992z M56.266,54.057L27.928,25.722
	c3.519-3.017,8.079-4.852,13.065-4.852c11.094,0,20.119,9.028,20.119,20.121C61.113,45.979,59.279,50.539,56.266,54.057z"/>
<g display="none">
	<path display="inline" fill="#020202" d="M35.781,61.621c-0.394,0-0.779-0.133-1.091-0.382L18.75,48.536
		c-0.756-0.602-0.88-1.703-0.277-2.459c0.602-0.757,1.702-0.88,2.459-0.277l14.536,11.584L58.42,27.059
		c0.583-0.771,1.683-0.924,2.451-0.339c0.771,0.583,0.923,1.681,0.34,2.451L37.176,60.927c-0.283,0.378-0.709,0.622-1.177,0.682
		C35.926,61.616,35.854,61.621,35.781,61.621z"/>
</g>
<g>
	<path d="M67.269,75.465H14.798V61.632l0.935-0.381c0.032-0.013,3.73-1.594,5.958-5.801c0.453-1.299,0.923-2.633,1.408-3.99
		c1.389-6.452,3.742-19.654,4.582-24.413h-4.494c-0.159,0.287-0.25,0.562-0.208,0.654c0.07,0.125,0.43,0.458,0.667,0.678
		c1.079,0.998,3.086,2.854,1.909,5.912C24.223,37.755,9.868,47.074,5.865,47.074c-0.253,0-0.491-0.03-0.707-0.089
		C1.103,45.881,0.7,38.448,0.7,38.374c0-1.352,0.103-13.335,3.68-17.807c0.071-0.089,9.236-8.865,35.849-8.865
		c23.17,0,35.564,6.498,37.457,8.865c3.577,4.473,3.681,16.456,3.681,17.807c0,0.074-0.402,7.507-4.457,8.611
		c-0.22,0.06-0.45,0.089-0.706,0.089c-0.001,0-0.001,0-0.001,0c-4.005-0.001-18.359-9.32-19.692-12.784
		c-1.176-3.058,0.831-4.914,1.91-5.912c0.237-0.22,0.598-0.553,0.673-0.688c0.041-0.091-0.058-0.366-0.212-0.643h-5.4
		c1.103,4.831,4.092,17.961,5.486,24.412c0.485,1.357,0.956,2.692,1.408,3.991c2.229,4.207,5.928,5.788,5.965,5.804l0.923,0.385
		l0.006,1.002V75.465z M17.798,72.465h46.471v-8.896c-1.524-0.843-4.569-2.912-6.604-6.828l-0.086-0.198
		c-0.471-1.354-0.962-2.747-1.469-4.165l-0.054-0.188c-1.703-7.885-5.876-26.123-5.918-26.307l-0.42-1.834h10.584l0.446,0.483
		c0.21,0.229,2.031,2.296,1.07,4.412c-0.298,0.654-0.839,1.155-1.361,1.639c-1.156,1.069-1.555,1.573-1.147,2.632
		c0.909,2.333,14.171,10.86,16.894,10.861c1.167-0.324,2.163-4.261,2.163-5.7c0-3.38-0.543-12.832-3.023-15.933
		c-0.812-1.015-11.582-7.739-35.114-7.739c-22.022,0-32.386,6.475-33.515,7.75C4.243,25.541,3.7,34.993,3.7,38.374
		c0,1.439,0.996,5.376,2.246,5.717c2.64-0.017,15.901-8.543,16.81-10.877c0.408-1.059,0.009-1.563-1.146-2.632
		c-0.523-0.484-1.064-0.984-1.362-1.639c-0.961-2.115,0.86-4.183,1.071-4.412l0.446-0.483h9.486l-0.307,1.758
		c-0.032,0.184-3.222,18.46-4.934,26.383l-0.054,0.188c-0.507,1.418-0.998,2.812-1.47,4.166l-0.085,0.197
		c-2.035,3.916-5.08,5.984-6.604,6.828V72.465z"/>
</g>
<g>
	<path d="M49.363,31.493h-16.74l1.667-7.5h13.406L49.363,31.493z M36.363,28.493h9.26l-0.333-1.5h-8.594L36.363,28.493z"/>
</g>
</svg>
