<?xml version="1.0" encoding="utf-8"?>
<!-- Generator: Adobe Illustrator 16.0.4, SVG Export Plug-In . SVG Version: 6.00 Build 0)  -->
<!DOCTYPE svg PUBLIC "-//W3C//DTD SVG 1.1//EN" "http://www.w3.org/Graphics/SVG/1.1/DTD/svg11.dtd">
<svg version="1.1" id="Layer_1" xmlns="http://www.w3.org/2000/svg" xmlns:xlink="http://www.w3.org/1999/xlink" x="0px" y="0px"
	 width="81.986px" height="81.986px" viewBox="0 0 81.986 81.986" enable-background="new 0 0 81.986 81.986" xml:space="preserve">
<g>
	<path d="M19.528,75.518c-0.316,0-0.633-0.098-0.9-0.293c-0.471-0.343-0.708-0.922-0.609-1.497l3.964-23.104L5.195,34.257
		c-0.418-0.407-0.568-1.015-0.388-1.569c0.181-0.554,0.66-0.958,1.236-1.042l23.202-3.369L39.62,7.25
		c0.519-1.044,2.229-1.044,2.747,0l10.375,21.026l23.2,3.369c0.579,0.084,1.058,0.488,1.236,1.042
		c0.182,0.555,0.031,1.163-0.387,1.569L60.001,50.624l3.965,23.104c0.099,0.575-0.137,1.154-0.61,1.497
		c-0.469,0.346-1.097,0.388-1.61,0.118L40.992,64.434L20.241,75.343C20.018,75.461,19.773,75.518,19.528,75.518z M9.553,34.229
		l15.144,14.763c0.36,0.353,0.525,0.858,0.44,1.355l-3.575,20.84l18.719-9.84c0.447-0.235,0.977-0.235,1.424,0l18.719,9.84
		l-3.576-20.84c-0.085-0.497,0.079-1.004,0.44-1.355l15.145-14.763L51.507,31.19c-0.5-0.072-0.932-0.385-1.155-0.837l-9.359-18.964
		l-9.359,18.964c-0.223,0.453-0.654,0.765-1.152,0.837L9.553,34.229z"/>
</g>
</svg>
