<?xml version="1.0" encoding="utf-8"?>
<!-- Generator: Adobe Illustrator 16.0.4, SVG Export Plug-In . SVG Version: 6.00 Build 0)  -->
<!DOCTYPE svg PUBLIC "-//W3C//DTD SVG 1.1//EN" "http://www.w3.org/Graphics/SVG/1.1/DTD/svg11.dtd">
<svg version="1.1" id="Layer_1" xmlns="http://www.w3.org/2000/svg" xmlns:xlink="http://www.w3.org/1999/xlink" x="0px" y="0px"
	 width="81.986px" height="81.986px" viewBox="0 0 81.986 81.986" enable-background="new 0 0 81.986 81.986" xml:space="preserve">
<g display="none">
	<path display="inline" d="M40.995,60.668c-1.021,0-1.851-0.83-1.853-1.852l-0.023-23.911c-0.002-1.023,0.827-1.852,1.851-1.854
		h0.002c1.022,0,1.851,0.829,1.853,1.851l0.023,23.91c0.002,1.023-0.826,1.854-1.851,1.855H40.995z"/>
</g>
<g display="none">
	<path display="inline" d="M40.991,21.319c-1.105,0-1.998,0.897-1.998,2.001c0,1.106,0.893,2.002,1.998,2.002
		c1.106,0,2.002-0.896,2.002-2.002C42.993,22.216,42.098,21.319,40.991,21.319z"/>
</g>
<path display="none" fill="#FFFFFF" d="M40.994,18.362c-12.48,0-22.633,10.153-22.633,22.63c0,12.48,10.153,22.633,22.633,22.633
	c12.479,0,22.631-10.152,22.631-22.633C63.625,28.515,53.473,18.362,40.994,18.362z M20.872,40.992c0-5.204,2.004-9.939,5.26-13.516
	l28.38,28.377c-3.58,3.256-8.312,5.26-13.518,5.26C29.898,61.113,20.872,52.086,20.872,40.992z M56.266,54.057L27.928,25.722
	c3.519-3.016,8.08-4.851,13.066-4.851c11.094,0,20.119,9.028,20.119,20.121C61.113,45.979,59.279,50.539,56.266,54.057z"/>
<g display="none">
	<path display="inline" fill="#020202" d="M35.781,61.621c-0.394,0-0.779-0.133-1.091-0.382L18.75,48.536
		c-0.756-0.602-0.88-1.703-0.278-2.459c0.602-0.757,1.703-0.88,2.459-0.277l14.537,11.584L58.42,27.059
		c0.583-0.771,1.682-0.923,2.451-0.339c0.771,0.583,0.923,1.681,0.34,2.452L37.176,60.927c-0.284,0.377-0.709,0.622-1.177,0.681
		C35.926,61.616,35.854,61.621,35.781,61.621z"/>
</g>
<g>
	<path d="M74.281,76.031H7.705c-0.967,0-1.75-0.783-1.75-1.75V7.705c0-0.966,0.783-1.75,1.75-1.75h66.576
		c0.967,0,1.75,0.784,1.75,1.75v66.577C76.031,75.248,75.248,76.031,74.281,76.031z M9.455,72.531h63.076V9.455H9.455V72.531z"/>
</g>
<path fill="#231F20" d="M35.4,61.33c-0.297,0-0.594-0.049-0.874-0.145l-0.141-0.049l-0.206-0.107
	c-0.018-0.004-0.156-0.059-0.317-0.162L16.112,47.258c-0.58-0.441-0.953-1.107-1.028-1.824c-0.074-0.717,0.146-1.418,0.623-1.971
	c0.513-0.604,1.275-0.953,2.084-0.953c0.606,0,1.202,0.199,1.679,0.566l15.482,11.871l27.115-33.29
	c0.515-0.638,1.29-1.002,2.124-1.002c0.594,0,1.158,0.183,1.631,0.531c0.588,0.424,0.979,1.08,1.072,1.79
	c0.094,0.715-0.109,1.425-0.566,1.993L37.376,60.514l-0.083,0.055c-0.173,0.162-0.316,0.246-0.41,0.307
	c0.01,0-0.125,0.109-0.323,0.201C36.144,61.256,35.772,61.33,35.4,61.33z"/>
</svg>
