<?xml version="1.0" encoding="utf-8"?>
<!-- Generator: Adobe Illustrator 16.0.4, SVG Export Plug-In . SVG Version: 6.00 Build 0)  -->
<!DOCTYPE svg PUBLIC "-//W3C//DTD SVG 1.1//EN" "http://www.w3.org/Graphics/SVG/1.1/DTD/svg11.dtd">
<svg version="1.1" id="Layer_1" xmlns="http://www.w3.org/2000/svg" xmlns:xlink="http://www.w3.org/1999/xlink" x="0px" y="0px"
	 width="81.986px" height="81.986px" viewBox="0 0 81.986 81.986" enable-background="new 0 0 81.986 81.986" xml:space="preserve">
<g>
	<g>
		<path d="M39.194,72.235l-4.097-3.226C29.905,64.918,4.011,43.65,4.25,26.689c0.076-5.429,2.698-9.96,7.79-13.464
			c3.354-2.307,6.922-3.475,10.607-3.475c8.129,0,14.517,5.696,18.718,11.036c4.369-5.178,10.892-10.7,18.849-10.7
			c3.441,0,6.758,1.022,9.859,3.039c5.03,3.274,7.574,7.671,7.56,13.069c-0.042,17.121-28.522,38.792-34.23,42.964L39.194,72.235z
			 M22.647,12.59c-3.099,0-6.127,1.001-8.998,2.976c-4.29,2.95-6.497,6.708-6.559,11.166c-0.221,15.623,24.755,36.103,29.763,40.05
			l2.405,1.89l2.47-1.803c5.514-4.03,33.028-24.926,33.066-40.679c0.01-4.374-2.1-7.968-6.27-10.683
			c-2.632-1.713-5.427-2.58-8.311-2.58c-7.552,0-13.833,6.001-17.771,11.034l-1.159,1.483l-1.106-1.522
			C36.421,18.752,30.333,12.59,22.647,12.59z"/>
	</g>
	<g>
		<path d="M39.349,63.613C27.253,54.081,10.97,37.555,11.123,26.788c0.027-1.986,0.552-4.973,4.812-7.901
			c13.977-9.605,25.194,14.442,25.194,14.442s11.966-23.053,25.194-14.442c4.061,2.644,4.442,5.48,4.438,7.291
			C70.734,37,52.653,53.893,39.349,63.613z"/>
	</g>
</g>
</svg>
