<?xml version="1.0" encoding="utf-8"?>
<!-- Generator: Adobe Illustrator 16.0.4, SVG Export Plug-In . SVG Version: 6.00 Build 0)  -->
<!DOCTYPE svg PUBLIC "-//W3C//DTD SVG 1.1//EN" "http://www.w3.org/Graphics/SVG/1.1/DTD/svg11.dtd">
<svg version="1.1" id="Layer_1" xmlns="http://www.w3.org/2000/svg" xmlns:xlink="http://www.w3.org/1999/xlink" x="0px" y="0px"
	 width="81.986px" height="81.986px" viewBox="0 0 81.986 81.986" enable-background="new 0 0 81.986 81.986" xml:space="preserve">
<g display="none">
	<path display="inline" d="M40.995,60.668c-1.021,0-1.851-0.83-1.853-1.852l-0.023-23.911c-0.002-1.023,0.827-1.852,1.851-1.854
		h0.002c1.022,0,1.851,0.829,1.853,1.851l0.023,23.91c0.002,1.023-0.826,1.854-1.851,1.855H40.995z"/>
</g>
<g display="none">
	<path display="inline" d="M40.991,21.319c-1.105,0-1.998,0.897-1.998,2.001c0,1.106,0.893,2.002,1.998,2.002
		c1.106,0,2.002-0.896,2.002-2.002C42.993,22.216,42.098,21.319,40.991,21.319z"/>
</g>
<path display="none" fill="#FFFFFF" d="M40.994,18.362c-12.48,0-22.633,10.153-22.633,22.63c0,12.48,10.153,22.633,22.633,22.633
	c12.479,0,22.631-10.152,22.631-22.633C63.625,28.515,53.473,18.362,40.994,18.362z M20.872,40.992c0-5.204,2.004-9.939,5.26-13.516
	l28.38,28.377c-3.58,3.256-8.312,5.26-13.518,5.26C29.898,61.113,20.872,52.086,20.872,40.992z M56.266,54.057L27.928,25.722
	c3.519-3.016,8.08-4.851,13.066-4.851c11.094,0,20.119,9.028,20.119,20.121C61.113,45.979,59.279,50.539,56.266,54.057z"/>
<g display="none">
	<path display="inline" fill="#020202" d="M35.781,61.621c-0.394,0-0.779-0.133-1.091-0.382L18.75,48.536
		c-0.756-0.602-0.88-1.703-0.278-2.459c0.602-0.757,1.703-0.88,2.459-0.277l14.537,11.584L58.42,27.059
		c0.583-0.771,1.682-0.923,2.451-0.339c0.771,0.583,0.923,1.681,0.34,2.452L37.176,60.927c-0.284,0.377-0.709,0.622-1.177,0.681
		C35.926,61.616,35.854,61.621,35.781,61.621z"/>
</g>
<g>
	<g>
		<path d="M36.889,52.155c-5.075,0-10.097-2.263-13.432-6.581c-2.804-3.633-4.282-7.831-4.16-11.822
			c0.133-4.332,2.162-8.227,5.714-10.967L44.1,8.24c7.388-5.7,18.045-4.326,23.751,3.065c2.765,3.58,3.968,8.024,3.39,12.512
			c-0.576,4.488-2.869,8.483-6.45,11.247c-0.936,0.716-2.275,0.546-2.996-0.388c-0.719-0.932-0.546-2.274,0.388-2.996
			c2.679-2.065,4.392-5.052,4.824-8.408c0.432-3.357-0.47-6.681-2.538-9.358c-4.265-5.529-12.24-6.554-17.769-2.286L27.61,26.173
			c-2.547,1.967-3.95,4.636-4.044,7.71c-0.092,3.002,1.07,6.229,3.272,9.08c4.271,5.531,12.244,6.561,17.772,2.288
			c0.94-0.718,2.277-0.547,2.996,0.385c0.72,0.936,0.547,2.275-0.385,2.997C44.145,51.006,40.504,52.155,36.889,52.155z"/>
	</g>
	<g>
		<path d="M45.432,30.026c5.075,0.056,10.072,2.374,13.358,6.729c2.765,3.664,4.195,7.878,4.03,11.868
			c-0.182,4.328-2.253,8.202-5.836,10.903L37.738,73.86c-7.45,5.617-18.092,4.127-23.716-3.328
			c-2.725-3.61-3.879-8.066-3.251-12.549c0.625-4.481,2.962-8.45,6.573-11.174c0.944-0.707,2.282-0.521,2.992,0.42
			c0.708,0.941,0.521,2.28-0.421,2.99c-2.701,2.038-4.447,5.004-4.917,8.354c-0.469,3.353,0.396,6.687,2.435,9.386
			c4.204,5.577,12.167,6.689,17.743,2.482l19.248-14.334c2.568-1.938,4.001-4.592,4.13-7.665c0.125-3.001-1.001-6.239-3.173-9.114
			c-4.21-5.578-12.171-6.695-17.746-2.484c-0.948,0.708-2.283,0.522-2.991-0.418c-0.71-0.943-0.522-2.281,0.417-2.993
			C38.164,31.096,41.816,29.986,45.432,30.026z"/>
	</g>
</g>
</svg>
