<?xml version="1.0" encoding="utf-8"?>
<!-- Generator: Adobe Illustrator 16.0.4, SVG Export Plug-In . SVG Version: 6.00 Build 0)  -->
<!DOCTYPE svg PUBLIC "-//W3C//DTD SVG 1.1//EN" "http://www.w3.org/Graphics/SVG/1.1/DTD/svg11.dtd">
<svg version="1.1" id="Layer_1" xmlns="http://www.w3.org/2000/svg" xmlns:xlink="http://www.w3.org/1999/xlink" x="0px" y="0px"
	 width="81.986px" height="81.986px" viewBox="0 0 81.986 81.986" enable-background="new 0 0 81.986 81.986" xml:space="preserve">
<g>
	<g>
		<path fill="#231F20" d="M6.885,21.908c-0.009,0.106-0.017,4.693-0.017,10.193v17.783c0,5.5,0.442,10.986,0.982,12.191
			s7.898,2.191,13.398,2.191h39.489c5.5,0,10.985-0.441,12.19-0.981c1.205-0.541,2.19-7.901,2.19-13.401V32.101
			c0-5.5-0.008-10.087-0.018-10.193s-3.223,2.8-7.112,6.689l-13.57,13.569c-3.89,3.89-8.824,8.234-10.966,9.655c0,0,0,0-2.388,0
			c-0.045,0-0.09,0-0.138,0c-2.424-0.035-2.424-0.035-2.424-0.035c-2.216-1.492-7.211-5.895-11.101-9.784L13.996,28.598
			C10.107,24.709,6.894,21.802,6.885,21.908z"/>
	</g>
	<g>
		<path fill="#231F20" d="M39.158,49.245c0.991,0.212,1.833,0.387,1.872,0.388c0,0,0,0,0.035,0c1.801,0,1.801,0,1.801,0
			c1.611-1.068,6.112-5.124,10.001-9.013l14.188-14.186c3.889-3.889,6.618-7.44,6.063-7.891s-6.881-0.82-12.381-0.82H21.248
			c-5.5,0-10.582,0.146-11.292,0.324s1.085,4.496,4.975,8.385l14.022,14.023C32.842,44.344,38.167,49.032,39.158,49.245z"/>
	</g>
</g>
</svg>
